<?xml version="1.0" encoding="UTF-8"?>
<svg width="48px" height="48px" viewBox="0 0 48 48" version="1.1" xmlns="http://www.w3.org/2000/svg" xmlns:xlink="http://www.w3.org/1999/xlink">
    <!-- Generator: Sketch 55.2 (78181) - https://sketchapp.com -->
    <title>Area chart_48px</title>
    <desc>Created with Sketch.</desc>
    <g id="Area-chart_48px" stroke="none" stroke-width="1" fill="none" fill-rule="evenodd">
        <circle id="Oval" fill-opacity="0.766908872" fill="#DBA975" cx="24" cy="24" r="22"></circle>
        <g id="noun_Area-Chart_769800" transform="translate(11.000000, 12.000000)" fill="#FFFFFF" fill-rule="nonzero">
            <path d="M23.8264174,16.340836 C23.930567,16.2733119 24,16.1720257 24,16.0369775 L24,9.25080386 C24,9.18327974 23.9652835,9.11575563 23.930567,9.08199357 L18.1329096,0.168810289 C18.0634766,0.0675241158 17.9246106,0 17.820461,0 C17.681595,0 17.5774455,0.101286174 17.5427289,0.202572347 L11.8492211,14.6189711 L6.36401239,11.0064309 C6.29457936,10.9389068 6.19042983,10.9389068 6.0862803,10.9726688 C5.98213077,11.0064309 5.91269774,11.0401929 5.87798123,11.1414791 L0.0456073756,20.4935691 C-0.0238256465,20.6286174 -0.0238256465,20.7974277 0.115040398,20.8987138 C0.18447342,20.9662379 0.253906442,21 0.358055975,21 C0.427488997,21 0.496922019,20.9662379 0.566355041,20.9324759 L6.25986285,17.2186495 L11.9533707,18.7379421 C12.0922367,18.7717042 12.1963862,18.7379421 12.3005358,18.6366559 L17.8898941,12.8633441 L23.4792523,16.307074 C23.5834019,16.4083601 23.7222679,16.4083601 23.8264174,16.340836 Z M23.3403863,15.4292605 L18.0287601,12.1543408 C17.8898941,12.0530547 17.7163115,12.0868167 17.5774455,12.221865 L11.8839376,18.062701 L6.25986285,16.5434084 C6.15571332,16.5096463 6.05156379,16.5434084 5.98213077,16.5771704 L1.43426782,19.5482315 L6.25986285,11.7829582 L11.7797881,15.4292605 C11.8839376,15.4967846 11.9880872,15.4967846 12.0922367,15.4630225 C12.1963862,15.4292605 12.2658193,15.3617363 12.3005358,15.2604502 L17.8898941,1.08038585 L23.3056698,9.35209003 L23.3056698,15.4292605 L23.3403863,15.4292605 Z" id="Shape"></path>
        </g>
    </g>
</svg>