<?xml version="1.0" standalone="no"?>
<!DOCTYPE svg PUBLIC "-//W3C//DTD SVG 1.1//EN" "http://www.w3.org/Graphics/SVG/1.1/DTD/svg11.dtd" >
<svg xmlns="http://www.w3.org/2000/svg">
<metadata>Generated by IcoMoon</metadata>
<defs>
<font id="ArubaIcon" horiz-adv-x="1024">
<font-face units-per-em="1024" ascent="960" descent="-64" />
<missing-glyph horiz-adv-x="1024" />
<glyph unicode="&#x20;" horiz-adv-x="512" d="" />
<glyph unicode="&#xe900;" glyph-name="access-point" d="M853.333 874.667c-23.564 0-42.667-19.103-42.667-42.667v0-205.227c-47.442 72.549-128.272 119.832-220.151 119.893h-157.023c-91.888-0.062-172.718-47.345-219.545-118.892l-0.615-1.001v205.227c0 23.564-19.103 42.667-42.667 42.667s-42.667-19.103-42.667-42.667v0-512c0-23.564 19.103-42.667 42.667-42.667v0h4.693c24.237-122.248 130.543-213.161 258.114-213.333h157.032c127.59 0.172 233.896 91.085 257.856 211.658l0.278 1.676h4.693c23.564 0 42.667 19.103 42.667 42.667v0 512c0 23.564-19.103 42.667-42.667 42.667v0zM768 326.827c-0.242-97.929-79.564-177.251-177.47-177.493h-157.036c-97.929 0.242-177.251 79.564-177.493 177.47v157.036c0.242 97.929 79.564 177.251 177.47 177.493h157.036c97.929-0.242 177.251-79.564 177.493-177.47v-0.023zM512 555.52c-75.779-8.35-134.199-72.019-134.199-149.333s58.42-140.983 133.525-149.273l0.675-0.060c0.18-0.001 0.394-0.001 0.608-0.001 34.34 0 65.942 11.725 91.020 31.391l-0.321-0.243c14.26-17.419 35.037-29.042 58.555-31.123l0.325-0.023v148.48c-0.242 82.848-67.338 149.945-150.163 150.187h-0.023zM512 320c-45.011 1.207-81.039 37.982-81.039 83.172 0 45.95 37.25 83.2 83.2 83.2 45.19 0 81.965-36.028 83.17-80.927l0.002-0.112c0.018-0.644 0.028-1.401 0.028-2.161 0-45.95-37.25-83.2-83.2-83.2-0.76 0-1.518 0.010-2.273 0.030l0.112-0.002z" />
<glyph unicode="&#xe901;" glyph-name="access-point-add" d="M853.333 874.667c-23.564 0-42.667-19.103-42.667-42.667v0-205.227c-47.442 72.549-128.272 119.832-220.151 119.893h-157.023c-91.888-0.062-172.718-47.345-219.545-118.892l-0.615-1.001v205.227c0 23.564-19.103 42.667-42.667 42.667s-42.667-19.103-42.667-42.667v0-512c0-23.564 19.103-42.667 42.667-42.667v0h4.693c24.237-122.248 130.543-213.161 258.114-213.333h157.032c127.59 0.172 233.896 91.085 257.856 211.658l0.278 1.676h4.693c23.564 0 42.667 19.103 42.667 42.667v0 512c0 23.564-19.103 42.667-42.667 42.667v0zM768 326.827c-0.242-97.929-79.564-177.251-177.47-177.493h-157.036c-97.929 0.242-177.251 79.564-177.493 177.47v157.036c0.242 97.929 79.564 177.251 177.47 177.493h157.036c97.929-0.242 177.251-79.564 177.493-177.47v-0.023zM648.533 439.467h-102.4v102.4c0 18.851-15.282 34.133-34.133 34.133s-34.133-15.282-34.133-34.133v0-102.4h-102.4c-18.851 0-34.133-15.282-34.133-34.133s15.282-34.133 34.133-34.133h102.4v-102.4c0-18.851 15.282-34.133 34.133-34.133s34.133 15.282 34.133 34.133v102.4h102.4c18.851 0 34.133 15.282 34.133 34.133s-15.282 34.133-34.133 34.133v0z" />
<glyph unicode="&#xe902;" glyph-name="access-point-outdoor" d="M768 618.667h-128v128c0 23.564-19.103 42.667-42.667 42.667v0h-384v42.667c0 23.564-19.103 42.667-42.667 42.667s-42.667-19.103-42.667-42.667v0-170.667c0-23.564 19.103-42.667 42.667-42.667s42.667 19.103 42.667 42.667v0 42.667h341.333v-85.333h-128c-70.692 0-128-57.308-128-128v0-85.333c0-23.564 19.103-42.667 42.667-42.667v0h42.667v-213.333c0-70.692 57.308-128 128-128v0h170.667c70.692 0 128 57.308 128 128v0 213.333h42.667c23.564 0 42.667 19.103 42.667 42.667v0 85.333c0 70.692-57.308 128-128 128v0zM725.333 149.333c0-23.564-19.103-42.667-42.667-42.667v0h-170.667c-23.564 0-42.667 19.103-42.667 42.667v0 213.333h256zM810.667 448h-426.667v42.667c0 23.564 19.103 42.667 42.667 42.667v0h341.333c23.564 0 42.667-19.103 42.667-42.667v0zM597.333 160c0.217-0.002 0.474-0.003 0.731-0.003 19.273 0 37.007 6.587 51.075 17.632l-0.179-0.136c8.31-9.716 20.146-16.207 33.504-17.478l0.203-0.016v85.333c0 47.128-38.205 85.333-85.333 85.333s-85.333-38.205-85.333-85.333c0-47.128 38.205-85.333 85.333-85.333v0zM597.333 292.693c0.127 0.001 0.277 0.002 0.427 0.002 26.156 0 47.36-21.204 47.36-47.36s-21.204-47.36-47.36-47.36c-26.156 0-47.359 21.203-47.36 47.358v0c0 0.001 0 0.001 0 0.002 0 26.006 20.961 47.117 46.91 47.358h0.023z" />
<glyph unicode="&#xe903;" glyph-name="add" d="M840.96 392.96h-273.92v-273.92c0-30.398-24.642-55.040-55.040-55.040s-55.040 24.642-55.040 55.040v0 273.92h-273.92c-30.398 0-55.040 24.642-55.040 55.040s24.642 55.040 55.040 55.040v0h273.92v273.92c0 30.398 24.642 55.040 55.040 55.040s55.040-24.642 55.040-55.040v0-273.92h273.92c30.398 0 55.040-24.642 55.040-55.040s-24.642-55.040-55.040-55.040v0z" />
<glyph unicode="&#xe904;" glyph-name="add-circle" d="M512 661.333c-23.564 0-42.667-19.103-42.667-42.667v0-128h-128c-23.564 0-42.667-19.103-42.667-42.667s19.103-42.667 42.667-42.667v0h128v-128c0-23.564 19.103-42.667 42.667-42.667s42.667 19.103 42.667 42.667v0 128h128c23.564 0 42.667 19.103 42.667 42.667s-19.103 42.667-42.667 42.667v0h-128v128c0 23.564-19.103 42.667-42.667 42.667v0zM512 874.667c-235.641 0-426.667-191.025-426.667-426.667s191.025-426.667 426.667-426.667c235.641 0 426.667 191.025 426.667 426.667v0c0 235.641-191.025 426.667-426.667 426.667v0zM512 106.667c-188.513 0-341.333 152.82-341.333 341.333s152.82 341.333 341.333 341.333c188.513 0 341.333-152.82 341.333-341.333v0c0-188.513-152.82-341.333-341.333-341.333v0z" />
<glyph unicode="&#xe905;" glyph-name="airgroup" d="M469.333 64c0.108-0.001 0.235-0.002 0.362-0.002 21.609 0 39.466 16.064 42.281 36.902l0.024 0.22c17.551 183.94 162.564 329.099 344.887 346.757l1.567 0.123c21.258 2.643 37.548 20.598 37.548 42.358 0 0.108 0 0.217-0.001 0.325v-0.017c0 0.064 0.001 0.139 0.001 0.214 0 23.564-19.103 42.667-42.667 42.667-1.503 0-2.988-0.078-4.45-0.229l0.183 0.015c-222.159-22.862-397.176-197.733-420.096-417.819l-0.171-2.021c-0.353-2.061-0.554-4.435-0.554-6.856 0-23.009 18.213-41.764 41.008-42.635l0.079-0.002zM768 64h128v128c-70.692 0-128-57.308-128-128v0zM643.413 64c0.143-0.002 0.313-0.003 0.482-0.003 21.306 0 38.965 15.617 42.153 36.029l0.031 0.24c15.626 89.382 85.125 158.88 173.227 174.321l1.279 0.186c21.001 3.131 36.926 21.039 36.926 42.667 0 23.811-19.302 43.113-43.113 43.113-2.183 0-4.328-0.162-6.423-0.475l0.237 0.029c-126.721-21.263-225.35-119.892-246.37-244.86l-0.244-1.753c-0.35-2.052-0.55-4.417-0.55-6.828 0-23.457 18.93-42.494 42.347-42.665h0.016zM554.667 832c-0.108 0.001-0.235 0.002-0.362 0.002-21.609 0-39.466-16.064-42.281-36.902l-0.024-0.22c-17.551-183.94-162.564-329.099-344.887-346.757l-1.567-0.123c-21.258-2.643-37.548-20.598-37.548-42.358 0-0.108 0-0.217 0.001-0.325v0.017c0-0.064-0.001-0.139-0.001-0.214 0-23.564 19.103-42.667 42.667-42.667 1.503 0 2.988 0.078 4.45 0.229l-0.183-0.015c223.706 22.058 400.112 198.318 422.242 420.015l0.158 1.959c0.165 1.409 0.259 3.040 0.259 4.694 0 23.564-19.103 42.667-42.667 42.667-0.091 0-0.182 0-0.273-0.001h0.014zM256 832h-128v-128c70.692 0 128 57.308 128 128v0zM381.013 832c-0.143 0.002-0.313 0.003-0.482 0.003-21.306 0-38.965-15.617-42.153-36.029l-0.031-0.24c-15.519-89.153-84.629-158.551-172.358-174.314l-1.296-0.193c-21.001-3.131-36.926-21.039-36.926-42.667 0-23.811 19.302-43.113 43.113-43.113 2.183 0 4.328 0.162 6.423 0.475l-0.237-0.029c126.837 21.314 225.519 120.14 246.373 245.296l0.24 1.744c0.307 1.924 0.483 4.143 0.483 6.403 0 23.564-19.103 42.667-42.667 42.667-0.17 0-0.34-0.001-0.509-0.003h0.026z" />
<glyph unicode="&#xe906;" glyph-name="applications-visibility" d="M874.667 853.333h-725.333c-23.564 0-42.667-19.103-42.667-42.667v0-725.333c0-23.564 19.103-42.667 42.667-42.667v0h725.333c23.564 0 42.667 19.103 42.667 42.667v0 725.333c0 23.564-19.103 42.667-42.667 42.667v0zM832 128h-640v640h640zM320 682.667h128c23.564 0 42.667-19.103 42.667-42.667v-128c0-23.564-19.103-42.667-42.667-42.667h-128c-23.564 0-42.667 19.103-42.667 42.667v128c0 23.564 19.103 42.667 42.667 42.667zM609.707 455.253c7.733-7.795 18.45-12.621 30.293-12.621s22.56 4.826 30.291 12.618l90.456 90.456c7.795 7.733 12.621 18.45 12.621 30.293s-4.826 22.56-12.618 30.291l-90.456 90.456c-7.733 7.795-18.45 12.621-30.293 12.621s-22.56-4.826-30.291-12.618l-90.456-90.456c-7.795-7.733-12.621-18.45-12.621-30.293s4.826-22.56 12.618-30.291l0.003-0.003zM576 426.667h128c23.564 0 42.667-19.103 42.667-42.667v-128c0-23.564-19.103-42.667-42.667-42.667h-128c-23.564 0-42.667 19.103-42.667 42.667v128c0 23.564 19.103 42.667 42.667 42.667zM320 426.667h128c23.564 0 42.667-19.103 42.667-42.667v-128c0-23.564-19.103-42.667-42.667-42.667h-128c-23.564 0-42.667 19.103-42.667 42.667v128c0 23.564 19.103 42.667 42.667 42.667z" />
<glyph unicode="&#xe907;" glyph-name="app-rf" d="M853.333 832h-426.667c-23.564 0-42.667-19.103-42.667-42.667v0-213.333h-213.333c-23.564 0-42.667-19.103-42.667-42.667v0-426.667c0-23.564 19.103-42.667 42.667-42.667v0h682.667c23.564 0 42.667 19.103 42.667 42.667v0 682.667c0 23.564-19.103 42.667-42.667 42.667v0zM810.667 149.333h-597.333v341.333h213.333c23.564 0 42.667 19.103 42.667 42.667v0 213.333h341.333zM761.173 708.693c9.897 0 17.92 8.023 17.92 17.92v0c0 9.897-8.023 17.92-17.92 17.92s-17.92-8.023-17.92-17.92v0c0-9.897 8.023-17.92 17.92-17.92v0zM761.173 627.627c14.845 0 26.88 12.035 26.88 26.88s-12.035 26.88-26.88 26.88c-14.845 0-26.88-12.035-26.88-26.88v0c0-14.845 12.035-26.88 26.88-26.88v0zM761.173 465.92c-4.948 0-8.96-4.012-8.96-8.96s4.012-8.96 8.96-8.96c4.948 0 8.96 4.012 8.96 8.96v0c0 4.948-4.012 8.96-8.96 8.96v0zM761.173 528.64c-9.897 0-17.92-8.023-17.92-17.92v0c0-9.897 8.023-17.92 17.92-17.92s17.92 8.023 17.92 17.92v0c0 9.897-8.023 17.92-17.92 17.92v0zM563.627 591.787c-4.948 0-8.96-4.012-8.96-8.96s4.012-8.96 8.96-8.96c4.948 0 8.96 4.012 8.96 8.96v0c0 4.948-4.012 8.96-8.96 8.96v0zM689.493 465.92c-4.948 0-8.96-4.012-8.96-8.96s4.012-8.96 8.96-8.96c4.948 0 8.96 4.012 8.96 8.96v0c0 4.948-4.012 8.96-8.96 8.96v0zM689.493 528.64c-9.897 0-17.92-8.023-17.92-17.92v0c0-9.897 8.023-17.92 17.92-17.92s17.92 8.023 17.92 17.92v0c0 9.897-8.023 17.92-17.92 17.92v0zM788.053 582.827c0-14.845-12.035-26.88-26.88-26.88s-26.88 12.035-26.88 26.88c0 14.845 12.035 26.88 26.88 26.88s26.88-12.035 26.88-26.88zM617.387 490.667c9.897 0 17.92 8.023 17.92 17.92v0c0.003 0.129 0.005 0.28 0.005 0.432 0 9.661-7.832 17.493-17.493 17.493-0.152 0-0.303-0.002-0.454-0.006h0.022c-9.897 0-17.92-8.023-17.92-17.92v0c0-9.897 8.023-17.92 17.92-17.92v0zM689.493 708.693c9.897 0 17.92 8.023 17.92 17.92v0c0 9.897-8.023 17.92-17.92 17.92s-17.92-8.023-17.92-17.92v0c0-9.897 8.023-17.92 17.92-17.92v0zM617.387 564.907c9.897 0 17.92 8.023 17.92 17.92s-8.023 17.92-17.92 17.92v0c-9.897 0-17.92-8.023-17.92-17.92s8.023-17.92 17.92-17.92v0zM563.627 645.547c4.948 0 8.96 4.012 8.96 8.96s-4.012 8.96-8.96 8.96c-4.948 0-8.96-4.012-8.96-8.96v0c0-4.948 4.012-8.96 8.96-8.96v0zM617.387 636.587c9.897 0 17.92 8.023 17.92 17.92s-8.023 17.92-17.92 17.92v0c-9.897 0-17.92-8.023-17.92-17.92s8.023-17.92 17.92-17.92v0zM617.387 708.693c0.129-0.003 0.28-0.005 0.432-0.005 9.661 0 17.493 7.832 17.493 17.493 0 0.152-0.002 0.303-0.006 0.454v-0.022c0 9.897-8.023 17.92-17.92 17.92v0c-9.897 0-17.92-8.023-17.92-17.92v0c0-9.897 8.023-17.92 17.92-17.92v0zM689.493 627.627c14.845 0 26.88 12.035 26.88 26.88s-12.035 26.88-26.88 26.88c-14.845 0-26.88-12.035-26.88-26.88v0c0-14.845 12.035-26.88 26.88-26.88v0zM716.373 582.827c0-14.845-12.035-26.88-26.88-26.88s-26.88 12.035-26.88 26.88c0 14.845 12.035 26.88 26.88 26.88s26.88-12.035 26.88-26.88zM289.707 198.827c0-14.845-12.035-26.88-26.88-26.88s-26.88 12.035-26.88 26.88c0 14.845 12.035 26.88 26.88 26.88s26.88-12.035 26.88-26.88zM262.827 297.387c-14.845 0-26.88-12.035-26.88-26.88s12.035-26.88 26.88-26.88c14.845 0 26.88 12.035 26.88 26.88v0c0 14.845-12.035 26.88-26.88 26.88v0zM262.827 324.693c9.897 0 17.92 8.023 17.92 17.92v0c0 9.897-8.023 17.92-17.92 17.92s-17.92-8.023-17.92-17.92v0c0-9.897 8.023-17.92 17.92-17.92v0zM334.507 324.693c9.897 0 17.92 8.023 17.92 17.92v0c0 9.897-8.023 17.92-17.92 17.92s-17.92-8.023-17.92-17.92v0c0-9.897 8.023-17.92 17.92-17.92v0zM271.787 396.373c0-4.948-4.012-8.96-8.96-8.96s-8.96 4.012-8.96 8.96c0 4.948 4.012 8.96 8.96 8.96s8.96-4.012 8.96-8.96zM343.467 396.373c0-4.948-4.012-8.96-8.96-8.96s-8.96 4.012-8.96 8.96c0 4.948 4.012 8.96 8.96 8.96s8.96-4.012 8.96-8.96zM361.387 198.827c0-14.845-12.035-26.88-26.88-26.88s-26.88 12.035-26.88 26.88c0 14.845 12.035 26.88 26.88 26.88s26.88-12.035 26.88-26.88zM406.613 360.533c-9.897 0-17.92-8.023-17.92-17.92v0c-0.003-0.129-0.005-0.28-0.005-0.432 0-9.661 7.832-17.493 17.493-17.493 0.152 0 0.303 0.002 0.454 0.006h-0.022c9.897 0 17.92 8.023 17.92 17.92v0c0 9.897-8.023 17.92-17.92 17.92v0zM334.507 297.387c-14.845 0-26.88-12.035-26.88-26.88s12.035-26.88 26.88-26.88c14.845 0 26.88 12.035 26.88 26.88v0c0 14.845-12.035 26.88-26.88 26.88v0zM460.373 277.333c-4.948 0-8.96-4.012-8.96-8.96s4.012-8.96 8.96-8.96c4.948 0 8.96 4.012 8.96 8.96v0c0 4.948-4.012 8.96-8.96 8.96v0zM460.373 207.787c-4.948 0-8.96-4.012-8.96-8.96s4.012-8.96 8.96-8.96c4.948 0 8.96 4.012 8.96 8.96v0c0 4.948-4.012 8.96-8.96 8.96v0zM406.613 216.747c-9.897 0-17.92-8.023-17.92-17.92s8.023-17.92 17.92-17.92v0c9.897 0 17.92 8.023 17.92 17.92s-8.023 17.92-17.92 17.92v0zM406.613 288.427c-9.897 0-17.92-8.023-17.92-17.92s8.023-17.92 17.92-17.92v0c9.897 0 17.92 8.023 17.92 17.92s-8.023 17.92-17.92 17.92v0z" />
<glyph unicode="&#xe908;" glyph-name="apps" d="M256 618.667v0c47.128 0 85.333 38.205 85.333 85.333v0 0c0 47.128-38.205 85.333-85.333 85.333v0 0c-47.128 0-85.333-38.205-85.333-85.333v0 0c0-47.128 38.205-85.333 85.333-85.333v0zM512 106.667v0c47.128 0 85.333 38.205 85.333 85.333v0 0c0 47.128-38.205 85.333-85.333 85.333v0 0c-47.128 0-85.333-38.205-85.333-85.333v0 0c0-47.128 38.205-85.333 85.333-85.333v0zM256 106.667v0c47.128 0 85.333 38.205 85.333 85.333v0 0c0 47.128-38.205 85.333-85.333 85.333v0 0c-47.128 0-85.333-38.205-85.333-85.333v0 0c0-47.128 38.205-85.333 85.333-85.333v0zM256 362.667v0c47.128 0 85.333 38.205 85.333 85.333v0 0c0 47.128-38.205 85.333-85.333 85.333v0 0c-47.128 0-85.333-38.205-85.333-85.333v0 0c0-47.128 38.205-85.333 85.333-85.333v0zM512 362.667v0c47.128 0 85.333 38.205 85.333 85.333v0 0c0 47.128-38.205 85.333-85.333 85.333v0 0c-47.128 0-85.333-38.205-85.333-85.333v0 0c0-47.128 38.205-85.333 85.333-85.333v0zM682.667 704v0c0-47.128 38.205-85.333 85.333-85.333v0 0c47.128 0 85.333 38.205 85.333 85.333v0 0c0 47.128-38.205 85.333-85.333 85.333v0 0c-47.128 0-85.333-38.205-85.333-85.333v0zM512 618.667v0c47.128 0 85.333 38.205 85.333 85.333v0 0c0 47.128-38.205 85.333-85.333 85.333v0 0c-47.128 0-85.333-38.205-85.333-85.333v0 0c0-47.128 38.205-85.333 85.333-85.333v0zM768 362.667v0c47.128 0 85.333 38.205 85.333 85.333v0 0c0 47.128-38.205 85.333-85.333 85.333v0 0c-47.128 0-85.333-38.205-85.333-85.333v0 0c0-47.128 38.205-85.333 85.333-85.333v0zM768 106.667v0c47.128 0 85.333 38.205 85.333 85.333v0 0c0 47.128-38.205 85.333-85.333 85.333v0 0c-47.128 0-85.333-38.205-85.333-85.333v0 0c0-47.128 38.205-85.333 85.333-85.333v0z" />
<glyph unicode="&#xe909;" glyph-name="arrow-diagonal" d="M369.493 779.52c0-29.22 23.687-52.907 52.907-52.907v0h293.973l-573.013-573.013c-9.5-9.5-15.376-22.624-15.376-37.12 0-28.993 23.503-52.496 52.496-52.496 14.496 0 27.62 5.876 37.12 15.376l573.013 573.013v-293.973c-0.136-1.422-0.213-3.075-0.213-4.746 0-29.22 23.687-52.907 52.907-52.907s52.907 23.687 52.907 52.907c0 1.671-0.077 3.324-0.229 4.956l0.016-0.209v421.12c-0.239 28.887-23.593 52.241-52.457 52.48h-421.143c0 0-0.001 0-0.002 0-29.070 0-52.663-23.445-52.905-52.457v-0.023z" />
<glyph unicode="&#xe90a;" glyph-name="arrow-drop-down" d="M298.667 554.667l213.333-213.333 213.333 213.333z" />
<glyph unicode="&#xe90b;" glyph-name="arrow-drop-up" d="M298.667 341.333l213.333 213.333 213.333-213.333z" />
<glyph unicode="&#xe90c;" glyph-name="arrow-left" d="M800 490.667h-458.667l200.533 205.653c7.668 7.712 12.407 18.343 12.407 30.080s-4.74 22.368-12.409 30.082l0.002-0.002c-7.589 7.054-17.796 11.383-29.013 11.383s-21.424-4.329-29.040-11.407l0.027 0.024-270.507-278.613c-7.418-7.666-11.989-18.126-11.989-29.653s4.571-21.987 12-29.665l-0.011 0.012 270.507-278.187c7.589-7.054 17.796-11.383 29.013-11.383s21.424 4.329 29.040 11.407l-0.027-0.024c7.542 7.69 12.197 18.235 12.197 29.867s-4.655 22.177-12.203 29.874l-200.527 205.22h458.667c23.564 0 42.667 19.103 42.667 42.667s-19.103 42.667-42.667 42.667v0z" />
<glyph unicode="&#xe90d;" glyph-name="aruba" d="M938.667 101.12v-69.12s-123.733 13.653-167.68 87.893c-70.248-54.819-159.791-87.898-257.060-87.898-0.677 0-1.354 0.002-2.031 0.005h0.104c-235.641 0-426.667 191.025-426.667 426.667s191.025 426.667 426.667 426.667c235.641 0 426.667-191.025 426.667-426.667v0zM749.227 458.667c-0.001 130.545-105.829 236.372-236.373 236.372s-236.373-105.828-236.373-236.373c0-130.245 105.342-235.887 235.474-236.372h0.046c130.448 0.242 236.131 105.925 236.373 236.35v0.024z" />
<glyph unicode="&#xe90e;" glyph-name="attach" d="M715.52 271.36h-410.027c-0.725-0.012-1.58-0.019-2.437-0.019-81.369 0-148.514 60.903-158.337 139.611l-0.079 0.781c-0.486 4.606-0.764 9.951-0.764 15.36 0 85.506 69.291 154.829 154.785 154.88h479.578c0.622 0.014 1.355 0.022 2.090 0.022 50.281 0 91.991-36.699 99.805-84.772l0.078-0.582c0.316-2.943 0.496-6.357 0.496-9.813 0-53.726-43.554-97.28-97.28-97.28-0.024 0-0.049 0-0.073 0h-407.036c-21.443 0-38.827 17.383-38.827 38.827s17.383 38.827 38.827 38.827h341.333c16.024 0 29.013 12.99 29.013 29.013s-12.99 29.013-29.013 29.013h-333.653c-0.731 0.019-1.591 0.030-2.454 0.030-50.2 0-91.821-36.736-99.445-84.791l-0.075-0.572c-0.377-3.201-0.592-6.91-0.592-10.668 0-53.255 43.172-96.427 96.427-96.427 0.208 0 0.416 0.001 0.624 0.002h400.608c0.478-0.005 1.043-0.008 1.609-0.008 80.155 0 146.507 59.099 157.859 136.1l0.105 0.868c0.485 4.606 0.761 9.951 0.761 15.36 0 85.741-69.481 155.254-155.21 155.307h-476.592c-1.267 0.026-2.761 0.041-4.258 0.041-111.744 0-204.006-83.412-217.92-191.37l-0.116-1.098c-0.681-6.398-1.070-13.822-1.070-21.336 0-117.821 95.513-213.333 213.333-213.333 0.376 0 0.752 0.001 1.128 0.003h416.795c16.024 0 29.013 12.99 29.013 29.013s-12.99 29.013-29.013 29.013v0z" />
<glyph unicode="&#xe90f;" glyph-name="building" d="M512 661.333v85.333c0 47.128-38.205 85.333-85.333 85.333v0h-256c-47.128 0-85.333-38.205-85.333-85.333v0-597.333c0-47.128 38.205-85.333 85.333-85.333v0h682.667c47.128 0 85.333 38.205 85.333 85.333v0 426.667c0 47.128-38.205 85.333-85.333 85.333v0zM256 149.333h-85.333v85.333h85.333zM256 320h-85.333v85.333h85.333zM256 490.667h-85.333v85.333h85.333zM256 661.333h-85.333v85.333h85.333zM426.667 149.333h-85.333v85.333h85.333zM426.667 320h-85.333v85.333h85.333zM426.667 490.667h-85.333v85.333h85.333zM426.667 661.333h-85.333v85.333h85.333zM810.667 149.333h-298.667v85.333h85.333v85.333h-85.333v85.333h85.333v85.333h-85.333v85.333h298.667c23.564 0 42.667-19.103 42.667-42.667v0-341.333c0-23.564-19.103-42.667-42.667-42.667v0zM768 490.667h-85.333v-85.333h85.333zM768 320h-85.333v-85.333h85.333z" />
<glyph unicode="&#xe910;" glyph-name="bulb" d="M810.667 568.32c-4.252 158.34-133.623 285.076-292.594 285.076-2.135 0-4.265-0.023-6.389-0.068l0.317 0.005c-1.807 0.040-3.937 0.063-6.072 0.063-158.972 0-288.342-126.737-292.586-284.684l-0.008-0.392c-0.008-0.773-0.012-1.686-0.012-2.6 0-60.273 19.528-115.985 52.602-161.155l-0.536 0.768 33.28 26.027-32.853-26.027c83.2-111.36 93.867-167.68 95.147-182.187 3.334-29.65 28.266-52.485 58.532-52.485 0.272 0 0.545 0.002 0.816 0.006h179.159c16.699 0.049 31.79 6.894 42.66 17.913l0.007 0.007c10.32 10.082 16.72 24.138 16.72 39.689 0 1.047-0.029 2.088-0.086 3.121l0.006-0.144c0 39.68 56.32 128 97.28 175.36v0 0l-24.747 19.627 25.6-18.347c33.134 44.256 53.238 99.944 53.759 160.304l0.001 0.123zM576.853 256h-134.827c-23.373 77.347-60.063 144.392-107.846 201.892l0.753-0.932c-22.66 30.748-36.267 69.381-36.267 111.192 0 0.059 0 0.118 0 0.177v-0.009c3.964 111.168 95.038 199.783 206.81 199.783 2.294 0 4.579-0.037 6.855-0.111l-0.332 0.009c1.944 0.066 4.23 0.103 6.524 0.103 111.772 0 202.846-88.615 206.8-199.422l0.010-0.361c-0.019-41.662-13.454-80.182-36.218-111.479l0.378 0.545-3.84-4.267c-47.515-55.337-84.728-121.074-107.711-193.162l-1.089-3.958zM597.333 128h-170.667c-23.564 0-42.667-19.103-42.667-42.667s19.103-42.667 42.667-42.667v0h170.667c23.564 0 42.667 19.103 42.667 42.667s-19.103 42.667-42.667 42.667v0z" />
<glyph unicode="&#xe911;" glyph-name="calendar" d="M810.667 789.333h-42.667v42.667c0 23.564-19.103 42.667-42.667 42.667s-42.667-19.103-42.667-42.667v0-42.667h-341.333v42.667c0 23.564-19.103 42.667-42.667 42.667s-42.667-19.103-42.667-42.667v0-42.667h-42.667c-47.128 0-85.333-38.205-85.333-85.333v0-597.333c0-47.128 38.205-85.333 85.333-85.333v0h597.333c47.128 0 85.333 38.205 85.333 85.333v0 597.333c0 47.128-38.205 85.333-85.333 85.333v0zM810.667 149.333c0-23.564-19.103-42.667-42.667-42.667v0h-512c-23.564 0-42.667 19.103-42.667 42.667v0 426.667h597.333zM341.333 490.667v0c23.564 0 42.667-19.103 42.667-42.667v0 0c0-23.564-19.103-42.667-42.667-42.667v0 0c-23.564 0-42.667 19.103-42.667 42.667v0 0c0 23.564 19.103 42.667 42.667 42.667v0zM512 490.667v0c23.564 0 42.667-19.103 42.667-42.667v0 0c0-23.564-19.103-42.667-42.667-42.667v0 0c-23.564 0-42.667 19.103-42.667 42.667v0 0c0 23.564 19.103 42.667 42.667 42.667v0zM682.667 490.667v0c23.564 0 42.667-19.103 42.667-42.667v0 0c0-23.564-19.103-42.667-42.667-42.667v0 0c-23.564 0-42.667 19.103-42.667 42.667v0 0c0 23.564 19.103 42.667 42.667 42.667v0zM341.333 362.667v0c23.564 0 42.667-19.103 42.667-42.667v0 0c0-23.564-19.103-42.667-42.667-42.667v0 0c-23.564 0-42.667 19.103-42.667 42.667v0 0c0 23.564 19.103 42.667 42.667 42.667v0zM512 362.667v0c23.564 0 42.667-19.103 42.667-42.667v0 0c0-23.564-19.103-42.667-42.667-42.667v0 0c-23.564 0-42.667 19.103-42.667 42.667v0 0c0 23.564 19.103 42.667 42.667 42.667v0z" />
<glyph unicode="&#xe912;" glyph-name="captive-portal" d="M853.333 789.333h-682.667c-47.128 0-85.333-38.205-85.333-85.333v0-512c0-47.128 38.205-85.333 85.333-85.333v0h682.667c47.128 0 85.333 38.205 85.333 85.333v0 512c0 47.128-38.205 85.333-85.333 85.333v0zM170.667 584.107h693.333v-320.853c0.031-0.777 0.049-1.689 0.049-2.606 0-37.055-29.34-67.258-66.057-68.644l-0.126-0.004h-561.067c-36.882 1.625-66.168 31.921-66.168 69.057 0 0.772 0.013 1.542 0.038 2.308l-0.003-0.112zM659.627 642.987h-459.52c-16.259 0-29.44 13.181-29.44 29.44v0 0c0.24 16.075 13.328 29.013 29.437 29.013 0.001 0 0.002 0 0.003 0h459.52c0.001 0 0.002 0 0.003 0 16.109 0 29.197-12.939 29.437-28.991v-0.023c0-16.259-13.181-29.44-29.44-29.44v0zM793.173 669.013c0-13.903-11.27-25.173-25.173-25.173s-25.173 11.27-25.173 25.173v0c0 13.903 11.27 25.173 25.173 25.173s25.173-11.27 25.173-25.173v0zM864 669.013c-1.69-12.648-12.411-22.302-25.387-22.302s-23.697 9.654-25.372 22.171l-0.014 0.131c-0.136 0.991-0.213 2.135-0.213 3.298 0 14.138 11.462 25.6 25.6 25.6s25.6-11.462 25.6-25.6c0-1.163-0.078-2.308-0.228-3.429l0.014 0.131zM746.667 490.667h-469.333c-11.782 0-21.333-9.551-21.333-21.333v0-128c0-11.782 9.551-21.333 21.333-21.333v0h469.333c11.782 0 21.333 9.551 21.333 21.333v0 128c0 11.782-9.551 21.333-21.333 21.333v0zM725.333 362.667h-426.667v85.333h426.667zM341.333 389.547l7.253-3.84 6.4 14.933 7.68-14.933 6.827 3.84-10.24 13.653 15.787 1.28-0.853 7.68-16.64-4.693 1.707 16.213h-8.107l2.133-16.213-16.64 4.693-0.853-7.68 15.36-1.28-9.813-13.653zM388.267 389.547l7.253-3.84 6.827 14.933 7.253-14.933 7.253 3.84-10.24 13.653 15.787 1.28-1.28 7.68-16.64-4.693 2.133 16.213h-8.107l1.707-16.213-16.213 4.693-1.28-7.68 15.787-1.28-10.24-13.653zM435.2 389.547l7.68-3.84 6.4 14.933 7.253-14.933 7.253 3.84-10.24 13.653 15.787 1.28-0.853 7.68-16.64-4.693 1.707 16.213h-8.107l1.707-16.213-16.213 4.693-1.28-7.68 15.787-1.28-10.24-13.653zM482.56 389.547l7.253-3.84 6.827 14.933 7.253-14.933 7.253 3.84-10.667 13.653 16.213 1.28-1.28 7.68-16.64-4.693 1.707 16.213h-8.107l2.133-16.213-16.64 4.693-0.853-7.68 15.36-1.28-9.813-13.653zM529.493 389.547l7.253-3.84 6.827 14.933 7.253-14.933 7.253 3.84-10.24 13.653 15.787 1.28-1.28 7.68-16.64-4.693 2.133 16.213h-8.107l1.707-16.213-16.213 4.693-1.28-7.68 15.787-1.28-10.24-13.653z" />
<glyph unicode="&#xe913;" glyph-name="chart-bar-vertical" d="M273.067 567.467h8.533c32.99 0 59.733-26.744 59.733-59.733v-298.667c0-32.99-26.744-59.733-59.733-59.733h-8.533c-32.99 0-59.733 26.744-59.733 59.733v0 298.667c0 32.99 26.744 59.733 59.733 59.733v0zM512 746.667c32.99 0 59.733-26.744 59.733-59.733v0-477.867c0-32.99-26.744-59.733-59.733-59.733s-59.733 26.744-59.733 59.733v0 477.867c0 32.99 26.744 59.733 59.733 59.733v0zM750.933 405.333c32.99 0 59.733-26.744 59.733-59.733v-136.533c0-32.99-26.744-59.733-59.733-59.733s-59.733 26.744-59.733 59.733v0 136.533c0 32.99 26.744 59.733 59.733 59.733v0z" />
<glyph unicode="&#xe914;" glyph-name="chart-line" d="M884.907 654.080h-2.56c-7.053 7.194-16.872 11.654-27.733 11.654s-20.68-4.459-27.727-11.647l-0.006-0.006-85.333-96c-79.64 89.69-195.249 145.925-323.993 145.925-0.696 0-1.392-0.002-2.087-0.005h0.107c-101.499-0.622-195.006-34.332-270.407-90.874l1.18 0.847c-9.422-6.819-15.481-17.782-15.481-30.161 0-10.42 4.293-19.837 11.207-26.578l0.008-0.007v-2.133c6.942-6.909 16.515-11.18 27.086-11.18 8.228 0 15.852 2.588 22.102 6.995l-0.121-0.081c61.675 46.874 139.755 75.093 224.425 75.093 0.001 0 0.001 0 0.002 0v0c108.565-0.768 205.442-50.152 270.051-127.439l0.456-0.561-115.2-128-131.413 128c-7.169 7.114-17.045 11.511-27.947 11.511s-20.777-4.397-27.949-11.514l0.003 0.002-244.48-236.373c-6.948-6.687-11.265-16.066-11.265-26.453s4.316-19.767 11.253-26.442l0.012-0.011 5.973-5.973c7.045-6.503 16.497-10.492 26.88-10.492s19.835 3.988 26.907 10.516l-0.027-0.025 213.333 208.64 128-128c7.317-7.656 17.609-12.416 29.013-12.416s21.696 4.76 28.999 12.401l0.014 0.015 133.547 146.773c24.164-42.097 42.551-91.027 52.439-142.969l0.467-2.951c2.987-18.246 18.637-32 37.501-32 0.016 0 0.032 0 0.049 0h3.837c0.057 0 0.125 0 0.192 0 20.972 0 37.973 17.001 37.973 37.973 0 2.414-0.225 4.774-0.656 7.063l0.037-0.236c-13.249 73.749-39.634 139.454-76.819 197.584l1.299-2.171 97.28 107.52c7.112 6.775 11.534 16.318 11.534 26.894 0 10.781-4.596 20.489-11.936 27.27l-0.025 0.023z" />
<glyph unicode="&#xe915;" glyph-name="chart-pie" d="M512 874.667c-235.641 0-426.667-191.025-426.667-426.667s191.025-426.667 426.667-426.667c235.641 0 426.667 191.025 426.667 426.667v0c0 235.641-191.025 426.667-426.667 426.667v0zM850.347 490.667h-295.68v295.68c154.513-20.152 275.528-141.167 295.496-293.958l0.184-1.722zM170.667 448c0.162 173.343 129.512 316.425 296.952 338.165l1.714 0.182v-676.693c-169.154 21.922-298.504 165.004-298.667 338.329v0.017zM554.667 109.653v295.68h295.68c-20.152-154.513-141.167-275.528-293.958-295.496l-1.722-0.184z" />
<glyph unicode="&#xe916;" glyph-name="chat" d="M853.333 874.667h-682.667c-47.128 0-85.333-38.205-85.333-85.333v0-512c0-47.128 38.205-85.333 85.333-85.333v0h597.333l170.667-170.667v768c0 47.128-38.205 85.333-85.333 85.333v0zM853.333 192l-85.333 85.333h-554.667c-23.564 0-42.667 19.103-42.667 42.667v0 426.667c0 23.564 19.103 42.667 42.667 42.667v0h597.333c23.564 0 42.667-19.103 42.667-42.667v0zM635.307 503.893c-34.5-23.515-77.099-37.547-122.975-37.547-0.117 0-0.233 0-0.35 0h0.018c-0.145 0-0.317-0.001-0.489-0.001-45.884 0-88.451 14.202-123.545 38.449l0.727-0.475c-7.076 4.895-15.84 7.818-25.286 7.818-11.847 0-22.62-4.598-30.631-12.108l0.025 0.023c-7.872-7.343-12.78-17.777-12.78-29.356 0-13.328 6.501-25.138 16.506-32.431l0.114-0.079c49.084-33.898 109.857-54.146 175.36-54.146s126.277 20.248 176.404 54.826l-1.044-0.681c10.119 7.372 16.62 19.182 16.62 32.51 0 11.58-4.908 22.013-12.756 29.335l-0.024 0.022c-7.953 7.34-18.623 11.84-30.343 11.84-9.56 0-18.42-2.994-25.694-8.096l0.144 0.095z" />
<glyph unicode="&#xe917;" glyph-name="checkbox-checked" d="M810.667 832h-597.333c-47.128 0-85.333-38.205-85.333-85.333v0-597.333c0-47.128 38.205-85.333 85.333-85.333v0h597.333c47.128 0 85.333 38.205 85.333 85.333v0 597.333c0 47.128-38.205 85.333-85.333 85.333v0zM456.96 264.96c-7.712-7.668-18.343-12.407-30.080-12.407s-22.368 4.74-30.082 12.409l-153.171 153.171c-6.377 7.412-10.259 17.129-10.259 27.753 0 23.564 19.103 42.667 42.667 42.667 10.624 0 20.341-3.883 27.809-10.307l-0.056 0.047 122.88-122.88 293.547 293.547c7.872 9.153 19.467 14.914 32.407 14.914 23.564 0 42.667-19.103 42.667-42.667 0-12.94-5.761-24.535-14.858-32.36l-0.056-0.047z" />
<glyph unicode="&#xe918;" glyph-name="check-box-indeterminate" d="M789.333 832h-554.667c-58.91 0-106.667-47.756-106.667-106.667v0-554.667c0-58.91 47.756-106.667 106.667-106.667v0h554.667c58.91 0 106.667 47.756 106.667 106.667v0 554.667c0 58.91-47.756 106.667-106.667 106.667v0zM853.333 170.667c0-35.346-28.654-64-64-64v0h-554.667c-35.346 0-64 28.654-64 64v0 554.667c0 35.346 28.654 64 64 64v0h554.667c35.346 0 64-28.654 64-64v0zM682.667 490.667h-341.333c-23.564 0-42.667-19.103-42.667-42.667s19.103-42.667 42.667-42.667v0h341.333c23.564 0 42.667 19.103 42.667 42.667s-19.103 42.667-42.667 42.667v0z" />
<glyph unicode="&#xe919;" glyph-name="checkbox-unchecked" d="M789.333 64h-554.667c-58.91 0-106.667 47.756-106.667 106.667v0 554.667c0 58.91 47.756 106.667 106.667 106.667v0h554.667c58.91 0 106.667-47.756 106.667-106.667v0-554.667c0-58.91-47.756-106.667-106.667-106.667v0zM234.667 789.333c-35.346 0-64-28.654-64-64v0-554.667c0-35.346 28.654-64 64-64v0h554.667c35.346 0 64 28.654 64 64v0 554.667c0 35.346-28.654 64-64 64v0z" />
<glyph unicode="&#xe91a;" glyph-name="checkmark" d="M381.44 290.133l-141.227 141.227c-5.67 2.977-12.387 4.723-19.513 4.723-23.564 0-42.667-19.103-42.667-42.667 0-7.014 1.692-13.633 4.691-19.47l-0.112 0.24 170.667-170.667c7.562-6.936 17.684-11.186 28.8-11.186s21.238 4.251 28.831 11.215l-0.031-0.028 430.933 430.933c6.819 7.533 10.993 17.572 10.993 28.587s-4.173 21.054-11.025 28.623l0.032-0.036c-7.562 6.936-17.684 11.186-28.8 11.186s-21.238-4.251-28.831-11.215l0.031 0.028z" />
<glyph unicode="&#xe91b;" glyph-name="checkmark-circle" d="M512 874.667c-235.641 0-426.667-191.025-426.667-426.667s191.025-426.667 426.667-426.667c235.641 0 426.667 191.025 426.667 426.667v0c0 235.641-191.025 426.667-426.667 426.667v0zM512 106.667c-188.513 0-341.333 152.82-341.333 341.333s152.82 341.333 341.333 341.333c188.513 0 341.333-152.82 341.333-341.333v0c0-188.513-152.82-341.333-341.333-341.333v0zM677.547 606.293l-250.88-250.88-80.213 80.213c-7.872 9.153-19.467 14.914-32.407 14.914-23.564 0-42.667-19.103-42.667-42.667 0-12.94 5.761-24.535 14.858-32.36l0.056-0.047 110.507-110.507c7.712-7.668 18.343-12.407 30.080-12.407s22.368 4.74 30.082 12.409l281.171 281.171c7.668 7.712 12.407 18.343 12.407 30.080s-4.74 22.368-12.409 30.082l0.002-0.002c-7.733 7.795-18.45 12.621-30.293 12.621s-22.56-4.826-30.291-12.618l-0.003-0.003z" />
<glyph unicode="&#xe91c;" glyph-name="chevron-down" d="M689.493 584.107l-177.493-176.213-177.92 176.213c-8.368 8.146-19.811 13.169-32.427 13.169s-24.059-5.023-32.437-13.179l0.010 0.010c-8.095-8.233-13.092-19.533-13.092-32s4.997-23.767 13.098-32.006l-0.006 0.006 210.347-208.213c8.368-8.146 19.811-13.169 32.427-13.169s24.059 5.023 32.437 13.179l-0.010-0.010 210.347 208.213c8.095 8.233 13.092 19.533 13.092 32s-4.997 23.767-13.098 32.006l0.006-0.006c-8.518 7.982-20.007 12.884-32.64 12.884s-24.122-4.902-32.666-12.908l0.026 0.024z" />
<glyph unicode="&#xe91d;" glyph-name="chevron-left" d="M648.107 690.773c-8.233 8.095-19.533 13.092-32 13.092s-23.767-4.997-32.006-13.098l0.006 0.006-208.213-210.347c-8.146-8.368-13.169-19.811-13.169-32.427s5.023-24.059 13.179-32.437l-0.010 0.010 208.213-210.347c8.233-8.095 19.533-13.092 32-13.092s23.767 4.997 32.006 13.098l-0.006-0.006c8.146 8.368 13.169 19.811 13.169 32.427s-5.023 24.059-13.179 32.437l0.010-0.010-176.213 177.92 176.213 177.493c8.172 8.435 13.208 19.949 13.208 32.64s-5.037 24.205-13.22 32.652l0.012-0.012z" />
<glyph unicode="&#xe91e;" glyph-name="chevron-right" d="M375.893 690.347c-8.12-8.3-13.131-19.672-13.131-32.213s5.010-23.913 13.139-32.222l-0.008 0.008 176.213-177.92-176.213-177.92c-8.146-8.368-13.169-19.811-13.169-32.427s5.023-24.059 13.179-32.437l-0.010 0.010c8.233-8.095 19.533-13.092 32-13.092s23.767 4.997 32.006 13.098l-0.006-0.006 208.213 210.773c8.12 8.3 13.131 19.672 13.131 32.213s-5.010 23.913-13.139 32.222l0.008-0.008-208.213 210.773c-8.184 7.843-19.311 12.671-31.566 12.671-12.683 0-24.158-5.172-32.431-13.521l-0.003-0.003z" />
<glyph unicode="&#xe91f;" glyph-name="chevron-up" d="M479.573 584.107l-210.347-208.213c-8.095-8.233-13.092-19.533-13.092-32s4.997-23.767 13.098-32.006l-0.006 0.006c8.368-8.146 19.811-13.169 32.427-13.169s24.059 5.023 32.437 13.179l-0.010-0.010 177.92 176.213 177.493-176.213c8.368-8.146 19.811-13.169 32.427-13.169s24.059 5.023 32.437 13.179l-0.010-0.010c8.095 8.233 13.092 19.533 13.092 32s-4.997 23.767-13.098 32.006l0.006-0.006-209.92 208.213c-8.368 8.146-19.811 13.169-32.427 13.169s-24.059-5.023-32.437-13.179l0.010 0.010z" />
<glyph unicode="&#xe920;" glyph-name="close" d="M797.44 733.013c-8.233 8.095-19.533 13.092-32 13.092s-23.767-4.997-32.006-13.098l0.006 0.006-221.44-221.013-221.44 221.44c-8.19 8.19-19.503 13.255-32 13.255-24.994 0-45.255-20.261-45.255-45.255 0-12.497 5.065-23.81 13.255-32l221.44-221.44-221.44-221.44c-8.19-8.19-13.255-19.503-13.255-32 0-24.994 20.261-45.255 45.255-45.255 12.497 0 23.81 5.065 32 13.255l221.44 221.44 221.44-221.44c8.19-8.19 19.503-13.255 32-13.255 24.994 0 45.255 20.261 45.255 45.255 0 12.497-5.065 23.81-13.255 32l-221.44 221.44 221.44 221.44c7.874 8.252 12.719 19.454 12.719 31.787s-4.845 23.535-12.736 31.805l0.017-0.018z" />
<glyph unicode="&#xe921;" glyph-name="cloud" d="M773.547 515.84c-28.105 120.719-134.774 209.288-262.129 209.288-101.124 0-189.205-55.841-235.091-138.37l-0.7-1.372c-106.667-9.645-189.612-98.631-189.612-206.99 0-114.757 93.029-207.787 207.787-207.787 1.711 0 3.417 0.021 5.118 0.062l-0.252-0.005h462.080c1.909-0.076 4.149-0.119 6.4-0.119 95.382 0 172.705 77.323 172.705 172.705 0 93.132-73.717 169.046-165.984 172.577l-0.321 0.010zM760.747 239.787h-462.080c-76.583 0-138.667 62.083-138.667 138.667s62.083 138.667 138.667 138.667v0h25.173c24.966 80.903 99.075 138.672 186.678 138.672 0.521 0 1.042-0.002 1.562-0.006h-0.080c0.766 0.011 1.671 0.017 2.577 0.017 105.616 0 191.402-84.9 192.835-190.175l0.001-0.135v-17.493h53.333c57.497 0 104.107-46.61 104.107-104.107s-46.61-104.107-104.107-104.107v0z" />
<glyph unicode="&#xe922;" glyph-name="cloud-security" d="M796.587 495.36v-71.253c41.843-14.445 71.362-53.494 71.362-99.437 0-57.968-46.992-104.96-104.96-104.96-0.788 0-1.575 0.009-2.359 0.026l0.117-0.002h-462.080c-2.315-0.136-5.022-0.213-7.748-0.213-77.762 0-140.8 63.038-140.8 140.8s63.038 140.8 140.8 140.8c2.726 0 5.433-0.077 8.12-0.23l-0.372 0.017h25.173c24.569 81.8 99.195 140.374 187.502 140.374 0.231 0 0.462 0 0.693-0.001h-0.036c12.55-0.040 24.785-1.281 36.628-3.613l-1.214 0.199v71.253c-10.422 1.415-22.688 2.338-35.126 2.556l-0.287 0.004c-0.254 0.001-0.555 0.001-0.856 0.001-101.626 0-189.953-56.939-234.82-140.656l-0.698-1.425c-105.997-12.077-187.58-101.258-187.58-209.493 0-116.353 94.279-210.686 210.612-210.773h462.088c0.381-0.003 0.831-0.005 1.282-0.005 97.257 0 176.156 78.601 176.638 175.745v0.046c-0.438 84.464-60.962 154.665-140.988 170.065l-1.092 0.175zM678.827 744.533l-94.72-40.533c-9.331-3.984-15.83-12.921-16.212-23.42l-0.001-0.047v-61.867c0.896-74.442 51.957-136.713 120.903-154.632l1.124-0.248c69.449 18.774 119.858 80.819 120.746 154.78l0.001 0.1v62.293c-0.307 10.115-6.247 18.773-14.778 22.971l-0.155 0.069-95.147 40.107c-3.344 1.543-7.257 2.442-11.38 2.442-3.741 0-7.308-0.741-10.564-2.083l0.184 0.067zM689.92 607.573h94.72c-6.098-54.931-43.5-99.77-93.742-116.622l-0.978-0.285v116.48h-95.147v73.813l95.147 40.107z" />
<glyph unicode="&#xe923;" glyph-name="cloud-up" d="M773.547 515.84c-28.105 120.719-134.774 209.288-262.129 209.288-101.124 0-189.205-55.841-235.091-138.37l-0.7-1.372c-106.667-9.645-189.612-98.631-189.612-206.99 0-114.757 93.029-207.787 207.787-207.787 1.711 0 3.417 0.021 5.118 0.062l-0.252-0.005h462.080c1.909-0.076 4.149-0.119 6.4-0.119 95.382 0 172.705 77.323 172.705 172.705 0 93.132-73.717 169.046-165.984 172.577l-0.321 0.010zM760.747 239.787h-462.080c-0.51-0.007-1.113-0.011-1.717-0.011-76.93 0-139.406 61.884-140.362 138.587l-0.001 0.090c0.451 72.56 56.392 131.913 127.499 137.78l0.501 0.033 38.4 3.84 17.493 32.853c33.975 61.807 98.649 102.997 172.943 102.997 93.263 0 171.366-64.909 191.597-152.016l0.26-1.327 10.667-52.053 52.053-2.56c54.576-3.213 97.726-47.849 98.559-102.745l0.001-0.081c-0.242-58.255-47.523-105.387-105.812-105.387 0 0-0.001 0-0.001 0v0zM369.92 413.44h90.453v-104.107h103.253v104.107h90.453l-142.080 138.667z" />
<glyph unicode="&#xe924;" glyph-name="cluster" d="M768 320c-1.658 0.1-3.595 0.157-5.547 0.157s-3.889-0.057-5.812-0.169l0.266 0.012-138.24 298.667c19.869 22.446 32.002 52.139 32.002 84.666 0 0.235-0.001 0.469-0.002 0.703v-0.036c0 70.692-57.308 128-128 128s-128-57.308-128-128v0c0.026-30.805 11.151-59.006 29.593-80.826l-0.153 0.186-152.747-303.36c-2.3 0.2-4.977 0.315-7.68 0.315s-5.38-0.114-8.025-0.338l0.345 0.024c-0.107 0-0.233 0.001-0.359 0.001-70.692 0-128-57.308-128-128s57.308-128 128-128c55.398 0 102.577 35.193 120.398 84.441l0.282 0.891h271.36c18.103-50.14 65.281-85.333 120.679-85.333 70.692 0 128 57.308 128 128s-57.308 128-128 128c-0.126 0-0.253 0-0.379-0.001h0.020zM647.68 234.667h-271.36c-6.545 17.879-16.119 33.219-28.229 46.155l0.069-0.075 148.907 298.667c7.542-1.628 16.206-2.561 25.088-2.561 0.18 0 0.36 0 0.54 0.001h-0.028c7.582 0.059 14.947 0.833 22.077 2.257l-0.743-0.124 134.827-294.4c-13.574-13.737-24.206-30.413-30.854-48.985l-0.292-0.935z" />
<glyph unicode="&#xe925;" glyph-name="compliance" d="M810.667 590.080c-4.247 158.108-133.428 284.659-292.168 284.659-2.285 0-4.564-0.026-6.837-0.078l0.338 0.006c-1.935 0.046-4.214 0.072-6.499 0.072-158.739 0-287.921-126.551-292.159-284.267l-0.008-0.392c0.051-55.797 16.934-107.64 45.844-150.738l-0.618 0.978c-1.473-3.784-2.398-8.16-2.558-12.731l-0.002-0.069v-365.653s0 0 0-2.56c-0.076-1.211-0.119-2.627-0.119-4.053s0.043-2.842 0.128-4.246l-0.009 0.193c0.939-3.031 1.953-5.574 3.135-8.021l-0.149 0.341s0 0 0-2.56 3.84-4.693 5.547-6.827 0 0 0 0c3.41-2.945 7.36-5.389 11.662-7.15l0.285-0.103s0 0 3.413 0c5.401-3.138 11.814-5.147 18.659-5.541l0.114-0.005c5.259 0.155 10.223 1.238 14.793 3.089l-0.286-0.102h3.84c0.513-0.11 1.103-0.172 1.707-0.172s1.194 0.063 1.762 0.182l-0.056-0.010 191.573 112.213 191.573-109.227h7.253c4.153-2.733 9.013-4.804 14.226-5.923l0.28-0.050c5.259 0.155 10.223 1.238 14.793 3.089l-0.286-0.102s2.56 0 3.413 0c4.587 1.864 8.537 4.308 12.001 7.299l-0.055-0.046c0 2.133 3.84 4.267 5.547 6.827s0 0 0 2.56c2.677 3.003 5.080 6.358 7.105 9.953l0.148 0.287c0.076 1.211 0.119 2.627 0.119 4.053s-0.043 2.842-0.128 4.246l0.009-0.193s0 0 0 2.56v365.653c-0.162 4.64-1.087 9.016-2.653 13.074l0.093-0.274c28.293 42.12 45.176 93.963 45.227 149.747v0.013zM533.76 218.88h-5.12l-8.533 2.987h-16.213l-8.533-2.987h-5.12l-148.907-85.333v223.573c48.049-32.067 107.127-51.172 170.667-51.172s122.617 19.105 171.801 51.883l-1.135-0.711v-223.573zM512 793.6c1.415 0.035 3.083 0.054 4.755 0.054 113.447 0 205.747-90.546 208.573-203.312l0.005-0.262c-3.065-112.841-95.27-203.148-208.568-203.148-1.676 0-3.347 0.020-5.013 0.059l0.247-0.005c-1.419-0.035-3.090-0.054-4.766-0.054-113.297 0-205.503 90.306-208.562 202.865l-0.006 0.283c2.832 113.029 95.131 203.574 208.578 203.574 1.672 0 3.339-0.020 5.002-0.059l-0.247 0.005zM392.107 485.973v-2.56c3.574-4.151 7.989-7.473 12.992-9.719l0.235-0.094h2.987c4.778-2.092 10.34-3.34 16.186-3.413h0.027c0.011 0 0.024 0 0.037 0 6.188 0 12.046 1.417 17.266 3.943l-0.237-0.103 2.56 2.133h5.12l213.333 162.56c9.697 7.23 15.91 18.669 15.91 31.558 0 9.812-3.6 18.784-9.552 25.665l0.042-0.050c-7.871 9.138-19.457 14.889-32.386 14.889-8.575 0-16.558-2.529-23.246-6.883l0.165 0.101-170.667-130.987-19.2 36.267c-7.268 13.757-21.483 22.973-37.85 22.973-7.051 0-13.702-1.71-19.562-4.739l0.238 0.112c-13.872-6.385-23.328-20.165-23.328-36.154 0-6.75 1.686-13.107 4.659-18.672l-0.104 0.213 42.667-81.493c0.305-2.070 0.903-3.938 1.756-5.656l-0.049 0.109z" />
<glyph unicode="&#xe926;" glyph-name="connectivity" d="M737.707 874.667h-366.080c-40.606-1.403-72.991-34.658-72.991-75.478 0-0.765 0.011-1.527 0.034-2.287l-0.003 0.111v-77.653c-0.136-1.185-0.213-2.559-0.213-3.951 0-20.265 16.428-36.693 36.693-36.693s36.693 16.428 36.693 36.693c0 1.392-0.077 2.766-0.228 4.117l0.015-0.166v38.827h366.080v-620.373h-366.080v38.827c0.136 1.185 0.213 2.559 0.213 3.951 0 20.265-16.428 36.693-36.693 36.693s-36.693-16.428-36.693-36.693c0-1.392 0.077-2.766 0.228-4.117l-0.015 0.166v-77.653c-0.020-0.648-0.031-1.411-0.031-2.176 0-40.819 32.385-74.075 72.863-75.474l0.128-0.004h366.080c40.606 1.403 72.991 34.658 72.991 75.478 0 0.765-0.011 1.527-0.034 2.287l0.003-0.111v698.027c0.020 0.648 0.031 1.411 0.031 2.176 0 40.819-32.385 74.075-72.863 75.474l-0.128 0.004zM136.96 490.667c4.862-4.852 11.574-7.853 18.987-7.853s14.124 3 18.987 7.853v0c44.506 41.216 104.283 66.5 169.964 66.5 62.525 0 119.699-22.912 163.584-60.798l-0.322 0.272c4.756-3.948 10.925-6.343 17.652-6.343 8.242 0 15.643 3.595 20.723 9.302l0.024 0.028c5.097 5.703 8.212 13.271 8.212 21.567 0 9.772-4.322 18.534-11.159 24.479l-0.039 0.034c-52.957 45.644-122.42 73.443-198.377 73.443-79.793 0-152.422-30.678-206.734-80.882l0.204 0.186c-6.988-5.984-11.388-14.816-11.388-24.675 0-9.045 3.704-17.226 9.677-23.107l0.004-0.004zM282.453 340.907l62.72-63.573 61.013 66.987c-15.492 15.751-37.033 25.512-60.854 25.512-24.855 0-47.228-10.627-62.824-27.584l-0.055-0.061zM221.44 405.333c4.993-5.302 12.059-8.604 19.897-8.604 6.748 0 12.924 2.447 17.689 6.503l-0.039-0.032c23.314 18.139 53.009 29.081 85.259 29.081 31.002 0 59.642-10.111 82.803-27.216l-0.381 0.269c4.704-3.536 10.644-5.663 17.080-5.663 8.238 0 15.662 3.485 20.879 9.060l0.015 0.016c5.141 5.715 8.285 13.314 8.285 21.649 0 10.196-4.705 19.292-12.063 25.237l-0.062 0.048c-31.903 24.258-72.296 38.863-116.1 38.863-46.239 0-88.677-16.273-121.9-43.404l0.347 0.275c-6.46-5.947-10.494-14.444-10.494-23.884 0-8.595 3.344-16.41 8.803-22.213l-0.016 0.017z" />
<glyph unicode="&#xe927;" glyph-name="copy" d="M682.667 21.333h-512c-23.564 0-42.667 19.103-42.667 42.667v0 597.333c0 23.564 19.103 42.667 42.667 42.667v0h512c23.564 0 42.667-19.103 42.667-42.667v0-597.333c0-23.564-19.103-42.667-42.667-42.667v0zM213.333 106.667h426.667v512h-426.667zM853.333 874.667h-512c-23.564 0-42.667-19.103-42.667-42.667s19.103-42.667 42.667-42.667v0h469.333v-554.667c0-23.564 19.103-42.667 42.667-42.667s42.667 19.103 42.667 42.667v0 597.333c0 23.564-19.103 42.667-42.667 42.667v0z" />
<glyph unicode="&#xe928;" glyph-name="dashboard" d="M896 874.667h-298.667c-23.564 0-42.667-19.103-42.667-42.667v0-384c0-23.564 19.103-42.667 42.667-42.667v0h298.667c23.564 0 42.667 19.103 42.667 42.667v0 384c0 23.564-19.103 42.667-42.667 42.667v0zM853.333 490.667h-213.333v298.667h213.333zM426.667 874.667h-298.667c-23.564 0-42.667-19.103-42.667-42.667v0-256c0-23.564 19.103-42.667 42.667-42.667v0h298.667c23.564 0 42.667 19.103 42.667 42.667v0 256c0 23.564-19.103 42.667-42.667 42.667v0zM384 618.667h-213.333v170.667h213.333zM896 362.667h-298.667c-23.564 0-42.667-19.103-42.667-42.667v0-256c0-23.564 19.103-42.667 42.667-42.667v0h298.667c23.564 0 42.667 19.103 42.667 42.667v0 256c0 23.564-19.103 42.667-42.667 42.667v0zM853.333 106.667h-213.333v170.667h213.333zM426.667 490.667h-298.667c-23.564 0-42.667-19.103-42.667-42.667v0-384c0-23.564 19.103-42.667 42.667-42.667v0h298.667c23.564 0 42.667 19.103 42.667 42.667v0 384c0 23.564-19.103 42.667-42.667 42.667v0zM384 106.667h-213.333v298.667h213.333z" />
<glyph unicode="&#xe929;" glyph-name="desktop" d="M861.013 832h-698.027c-0.001 0-0.003 0-0.005 0-42.587 0-77.166-34.282-77.648-76.754v-460.846c0.482-42.518 35.062-76.8 77.649-76.8 0.002 0 0.003 0 0.005 0h271.36v-76.8h-38.827c-21.208 0-38.4-17.192-38.4-38.4s17.192-38.4 38.4-38.4h232.96c21.208 0 38.4 17.192 38.4 38.4s-17.192 38.4-38.4 38.4h-38.827v76.8h271.36c0.001 0 0.003 0 0.005 0 42.587 0 77.166 34.282 77.648 76.754v460.846c-0.482 42.518-35.062 76.8-77.649 76.8-0.002 0-0.003 0-0.005 0v0zM822.187 294.4h-620.373c-0.127-0.002-0.277-0.002-0.427-0.002-21.208 0-38.4 17.192-38.4 38.4 0 0.001 0 0.002 0 0.003v0 384c0 0.001 0 0.002 0 0.002 0 21.208 17.192 38.4 38.4 38.4 0.15 0 0.3-0.001 0.449-0.003h620.35c0.127 0.002 0.277 0.002 0.427 0.002 21.208 0 38.4-17.192 38.4-38.4 0-0.001 0-0.002 0-0.003v0-384c0-0.001 0-0.002 0-0.002 0-21.208-17.192-38.4-38.4-38.4-0.15 0-0.3 0.001-0.449 0.003h0.023z" />
<glyph unicode="&#xe92a;" glyph-name="device-any" d="M162.987 634.453c0.236 20.792 17.146 37.556 37.971 37.556 0.301 0 0.601-0.003 0.9-0.010l-0.044 0.001h620.373c1.199-0.136 2.589-0.213 3.997-0.213 20.736 0 37.547 16.81 37.547 37.547s-16.81 37.547-37.547 37.547c-1.408 0-2.798-0.077-4.165-0.228l0.169 0.015h-659.2c-0.386 0.007-0.842 0.011-1.299 0.011-41.584 0-75.405-33.234-76.353-74.59l-0.002-0.088v-448c0.949-41.444 34.771-74.678 76.355-74.678 0.457 0 0.912 0.004 1.367 0.012l-0.068-0.001h116.48c1.199-0.136 2.589-0.213 3.997-0.213 20.736 0 37.547 16.81 37.547 37.547s-16.81 37.547-37.547 37.547c-1.408 0-2.798-0.077-4.165-0.228l0.169 0.015h-77.653c-0.257-0.006-0.559-0.010-0.863-0.010-20.675 0-37.492 16.524-37.963 37.086l-0.001 0.044zM512 448h-77.653c-0.255 0.006-0.555 0.010-0.856 0.010-20.825 0-37.735-16.764-37.971-37.534v-29.035c-23.837-19.863-38.897-49.559-38.897-82.773s15.060-62.91 38.724-82.633l0.173-0.14v-29.44c0.472-20.606 17.288-37.13 37.964-37.13 0.303 0 0.606 0.004 0.908 0.011l-0.045-0.001h77.653c0.257-0.006 0.559-0.010 0.863-0.010 20.675 0 37.492 16.524 37.963 37.086l0.001 0.044v29.44c23.837 19.863 38.897 49.559 38.897 82.773s-15.060 62.91-38.724 82.633l-0.173 0.14v29.013c-0.236 20.792-17.146 37.556-37.971 37.556-0.301 0-0.601-0.003-0.9-0.010l0.044 0.001zM473.173 242.773c-29.937 1.179-53.76 25.734-53.76 55.853 0 30.869 25.024 55.893 55.893 55.893 30.855 0 55.87-25.001 55.893-55.85v-0.002c-0.472-30.977-25.695-55.908-56.74-55.908-0.452 0-0.903 0.005-1.353 0.016l0.067-0.001zM899.84 597.333h-232.533c-20.273-1.743-36.398-17.429-38.807-37.342l-0.020-0.204v-373.333c2.618-19.936 18.68-35.414 38.67-37.109l0.157-0.011h232.533c20.147 1.706 36.209 17.184 38.803 36.904l0.023 0.216v373.333c-2.428 20.117-18.554 35.804-38.668 37.536l-0.159 0.011zM861.013 224h-154.88v298.667h154.88z" />
<glyph unicode="&#xe92b;" glyph-name="device-classified-system" d="M247.467 628.053c0.708 19.944 17.046 35.843 37.098 35.843 0.158 0 0.315-0.001 0.473-0.003h564.029c1.178-0.136 2.544-0.213 3.928-0.213 20.030 0 36.267 16.237 36.267 36.267s-16.237 36.267-36.267 36.267c-1.384 0-2.749-0.077-4.093-0.228l0.165 0.015h-601.6c-0.772 0.029-1.679 0.045-2.589 0.045-40.267 0-73.047-32.059-74.208-72.045l-0.002-0.107v-396.373h-17.92c-29.926 0-54.187-24.26-54.187-54.187s24.26-54.187 54.187-54.187h348.16v108.373h-253.44zM794.453 225.28c10.915 4.506 20.332 9.948 28.906 16.445l-0.319-0.232 35.84-13.227c1.98-0.844 4.284-1.335 6.703-1.335 6.376 0 11.956 3.412 15.013 8.509l0.044 0.079 29.867 49.92c1.464 2.428 2.33 5.359 2.33 8.492 0 5.399-2.571 10.198-6.557 13.238l-0.040 0.030-30.293 23.467c1.048 4.828 1.81 10.535 2.121 16.362l0.012 0.278c-0.357 5.983-1.117 11.539-2.264 16.952l0.131-0.739 30.293 23.040c4.026 3.070 6.597 7.868 6.597 13.268 0 3.134-0.866 6.065-2.372 8.568l0.042-0.075-29.867 49.92c-3.284 5.276-9.052 8.735-15.628 8.735-2.198 0-4.307-0.387-6.26-1.096l0.128 0.041-35.84-13.653c-8.223 5.711-17.613 10.989-27.496 15.356l-1.091 0.43-5.973 36.693c-1.283 8.266-8.349 14.518-16.875 14.518-0.217 0-0.434-0.004-0.649-0.012l0.031 0.001h-59.307c-0.076 0.001-0.166 0.002-0.257 0.002-8.607 0-15.762-6.216-17.221-14.403l-0.016-0.106-5.973-36.693c-10.914-4.639-20.327-10.218-28.877-16.857l0.29 0.217-36.267 13.227c-1.876 0.728-4.047 1.15-6.317 1.15-6.545 0-12.271-3.509-15.398-8.748l-0.045-0.082-28.587-51.627c-1.49-2.482-2.371-5.477-2.371-8.677 0-5.481 2.583-10.358 6.599-13.48l0.038-0.029 29.867-23.040c-0.211-2.364-0.331-5.115-0.331-7.893s0.12-5.529 0.356-8.246l-0.025 0.353c-0.201-2.491-0.315-5.392-0.315-8.32s0.114-5.83 0.339-8.7l-0.024 0.38-29.867-23.467c-4.026-3.070-6.597-7.868-6.597-13.268 0-3.134 0.866-6.065 2.372-8.568l-0.042 0.075 29.44-47.787c3.419-5.035 9.118-8.3 15.58-8.3 2.214 0 4.339 0.383 6.311 1.087l-0.131-0.041 35.84 13.227c8.255-6.265 17.672-11.707 27.74-15.901l0.847-0.313 5.973-36.693c1.283-8.266 8.349-14.518 16.875-14.518 0.217 0 0.434 0.004 0.649 0.012l-0.031-0.001h59.307c0.205-0.009 0.446-0.014 0.688-0.014 8.375 0 15.341 6.033 16.79 13.99l0.016 0.104zM673.28 344.747c0 37.703 30.564 68.267 68.267 68.267s68.267-30.564 68.267-68.267c0-37.703-30.564-68.267-68.267-68.267v0c-37.703 0-68.267 30.564-68.267 68.267v0z" />
<glyph unicode="&#xe92c;" glyph-name="device-classified-user" d="M247.467 628.053c0.708 19.944 17.046 35.843 37.098 35.843 0.158 0 0.315-0.001 0.473-0.003h564.029c1.178-0.136 2.544-0.213 3.928-0.213 20.030 0 36.267 16.237 36.267 36.267s-16.237 36.267-36.267 36.267c-1.384 0-2.749-0.077-4.093-0.228l0.165 0.015h-601.6c-0.772 0.029-1.679 0.045-2.589 0.045-40.267 0-73.047-32.059-74.208-72.045l-0.002-0.107v-396.373h-17.92c-29.926 0-54.187-24.26-54.187-54.187s24.26-54.187 54.187-54.187h348.16v108.373h-253.44zM725.333 320c47.128 0 85.333 38.205 85.333 85.333s-38.205 85.333-85.333 85.333c-47.128 0-85.333-38.205-85.333-85.333v0c0-47.128 38.205-85.333 85.333-85.333v0zM725.333 277.333c-57.173 0-170.667-28.587-170.667-85.333v-21.333c0-11.782 9.551-21.333 21.333-21.333v0h298.667c11.687 0.234 21.099 9.647 21.333 21.311v21.355c0 56.747-113.493 85.333-170.667 85.333z" />
<glyph unicode="&#xe92d;" glyph-name="device-unclassified" d="M247.467 628.053c0.708 19.944 17.046 35.843 37.098 35.843 0.158 0 0.315-0.001 0.473-0.003h521.363c1.178-0.136 2.544-0.213 3.928-0.213 20.030 0 36.267 16.237 36.267 36.267s-16.237 36.267-36.267 36.267c-1.384 0-2.749-0.077-4.093-0.228l0.165 0.015h-558.933c-0.772 0.029-1.679 0.045-2.589 0.045-40.267 0-73.047-32.059-74.208-72.045l-0.002-0.107v-396.373h-17.92c-29.926 0-54.187-24.26-54.187-54.187s24.26-54.187 54.187-54.187h348.16v108.373h-253.44zM725.333 490.667c-94.257 0-170.667-76.41-170.667-170.667s76.41-170.667 170.667-170.667c94.257 0 170.667 76.41 170.667 170.667v0c0 94.257-76.41 170.667-170.667 170.667v0zM725.333 200.533c-9.426 0-17.067 7.641-17.067 17.067s7.641 17.067 17.067 17.067c9.426 0 17.067-7.641 17.067-17.067v0c0-9.426-7.641-17.067-17.067-17.067v0zM777.813 332.8l-15.36-15.787c-8.416-7.443-14.67-17.15-17.818-28.168l-0.102-0.418c-1.357-5.701-2.136-12.246-2.136-18.972 0-0.23 0.001-0.46 0.003-0.689v0.035h-34.133v8.533c-0.001 0.104-0.001 0.226-0.001 0.349 0 7.835 1.408 15.342 3.985 22.281l-0.144-0.443c3.466 10.217 9.025 18.938 16.206 26.019l0.008 0.007 20.907 21.76c6.297 5.86 10.224 14.196 10.224 23.448 0 2.579-0.305 5.088-0.881 7.49l0.044-0.218c-2.513 12.427-11.505 22.27-23.225 25.961l-0.242 0.066c-2.996 0.94-6.441 1.482-10.012 1.482-15.033 0-27.824-9.598-32.579-23l-0.075-0.242c-1.722-6.326-7.342-10.929-14.062-11.093h-5.138c-8.148 0.13-14.703 6.765-14.703 14.932 0 1.522 0.228 2.991 0.651 4.374l-0.028-0.106c8.194 28.394 33.95 48.81 64.473 48.81 23.77 0 44.649-12.381 56.538-31.046l0.161-0.271c8.24-9.676 13.253-22.321 13.253-36.137 0-15.155-6.032-28.901-15.825-38.969l0.012 0.013z" />
<glyph unicode="&#xe92e;" glyph-name="difference" d="M810.667 832h-597.333c-47.128 0-85.333-38.205-85.333-85.333v0-597.333c0-47.128 38.205-85.333 85.333-85.333v0h597.333c47.128 0 85.333 38.205 85.333 85.333v0 597.333c0 47.128-38.205 85.333-85.333 85.333v0zM288 661.333h149.333c17.673 0 32-14.327 32-32s-14.327-32-32-32v0h-149.333c-17.673 0-32 14.327-32 32s14.327 32 32 32v0zM768 149.333h-554.667l597.333 597.333v-554.667c0-23.564-19.103-42.667-42.667-42.667v0zM618.667 277.333v-53.333c0-17.673 14.327-32 32-32s32 14.327 32 32v0 53.333h53.333c17.673 0 32 14.327 32 32s-14.327 32-32 32v0h-53.333v53.333c0 17.673-14.327 32-32 32s-32-14.327-32-32v0-53.333h-53.333c-17.673 0-32-14.327-32-32s14.327-32 32-32v0z" />
<glyph unicode="&#xe92f;" glyph-name="download" d="M482.133 216.747c4.001-3.646 8.658-6.662 13.76-8.838l0.32-0.122c4.778-2.092 10.34-3.34 16.186-3.413h0.027c0.178-0.003 0.388-0.005 0.598-0.005 5.185 0 10.113 1.101 14.563 3.082l-0.228-0.091c5.492 2.069 10.185 5.116 14.084 8.964l-0.004-0.004 183.893 181.76c9.153 7.872 14.914 19.467 14.914 32.407 0 23.564-19.103 42.667-42.667 42.667-12.94 0-24.535-5.761-32.36-14.858l-0.047-0.056-110.507-108.373v482.133c0 23.564-19.103 42.667-42.667 42.667v0 0c-23.564 0-42.667-19.103-42.667-42.667v0-481.707l-107.947 107.947c-7.412 6.377-17.129 10.259-27.753 10.259-23.564 0-42.667-19.103-42.667-42.667 0-10.624 3.883-20.341 10.307-27.809l-0.047 0.056zM896 277.333c-23.564 0-42.667-19.103-42.667-42.667v0-128h-682.667v128c0 23.564-19.103 42.667-42.667 42.667s-42.667-19.103-42.667-42.667v0-170.667c0-23.564 19.103-42.667 42.667-42.667v0h768c23.564 0 42.667 19.103 42.667 42.667v0 170.667c0 23.564-19.103 42.667-42.667 42.667v0z" />
<glyph unicode="&#xe930;" glyph-name="drag-and-drop" d="M469.333 192c0-47.128-38.205-85.333-85.333-85.333s-85.333 38.205-85.333 85.333c0 47.128 38.205 85.333 85.333 85.333v0c47.128 0 85.333-38.205 85.333-85.333v0zM384 533.333c-47.128 0-85.333-38.205-85.333-85.333s38.205-85.333 85.333-85.333c47.128 0 85.333 38.205 85.333 85.333v0c0 47.128-38.205 85.333-85.333 85.333v0zM384 789.333c-47.128 0-85.333-38.205-85.333-85.333s38.205-85.333 85.333-85.333c47.128 0 85.333 38.205 85.333 85.333v0c0 47.128-38.205 85.333-85.333 85.333v0zM640 618.667c47.128 0 85.333 38.205 85.333 85.333s-38.205 85.333-85.333 85.333c-47.128 0-85.333-38.205-85.333-85.333v0c0-47.128 38.205-85.333 85.333-85.333v0zM640 533.333c-47.128 0-85.333-38.205-85.333-85.333s38.205-85.333 85.333-85.333c47.128 0 85.333 38.205 85.333 85.333v0c0 47.128-38.205 85.333-85.333 85.333v0zM640 277.333c-47.128 0-85.333-38.205-85.333-85.333s38.205-85.333 85.333-85.333c47.128 0 85.333 38.205 85.333 85.333v0c0 47.128-38.205 85.333-85.333 85.333v0z" />
<glyph unicode="&#xe931;" glyph-name="edit" d="M599.893 576l39.253-39.253-386.56-387.413h-39.253v39.253l386.56 387.413zM753.493 832c-11.656-0.051-22.2-4.767-29.869-12.376l-78.077-78.077 160-160 78.080 79.787c7.668 7.712 12.407 18.343 12.407 30.080s-4.74 22.368-12.409 30.082l0.002-0.002-99.84 98.133c-7.709 7.648-18.326 12.374-30.047 12.374-0.087 0-0.173 0-0.26-0.001h0.013zM599.893 695.893l-471.893-471.893v-160h160l471.893 471.893z" />
<glyph unicode="&#xe932;" glyph-name="exit" d="M460.373 264.96c7.712-7.668 18.343-12.407 30.080-12.407s22.368 4.74 30.082 12.409l153.171 153.171c7.668 7.712 12.407 18.343 12.407 30.080s-4.74 22.368-12.409 30.082l-153.171 153.171c-7.872 9.153-19.467 14.914-32.407 14.914-23.564 0-42.667-19.103-42.667-42.667 0-12.94 5.761-24.535 14.858-32.36l0.056-0.047 80.213-80.64h-369.92c-23.564 0-42.667-19.103-42.667-42.667s19.103-42.667 42.667-42.667v0h369.92l-80.213-80.213c-7.668-7.712-12.407-18.343-12.407-30.080s4.74-22.368 12.409-30.082l-0.002 0.002zM810.667 832h-597.333c-47.128 0-85.333-38.205-85.333-85.333v0-128c0-23.564 19.103-42.667 42.667-42.667s42.667 19.103 42.667 42.667v0 85.333c0 23.564 19.103 42.667 42.667 42.667v0h512c23.564 0 42.667-19.103 42.667-42.667v0-512c0-23.564-19.103-42.667-42.667-42.667v0h-512c-23.564 0-42.667 19.103-42.667 42.667v0 85.333c0 23.564-19.103 42.667-42.667 42.667s-42.667-19.103-42.667-42.667v0-128c0-47.128 38.205-85.333 85.333-85.333v0h597.333c47.128 0 85.333 38.205 85.333 85.333v0 597.333c0 47.128-38.205 85.333-85.333 85.333v0z" />
<glyph unicode="&#xe933;" glyph-name="eye" d="M512 666.88c150.441-0.53 280.102-88.956 340.357-216.58l0.976-2.3c-61.5-129.41-191.155-217.28-341.333-217.28s-279.833 87.87-340.357 215.001l-0.977 2.279c61.231 129.924 190.892 218.35 341.263 218.88h0.070zM512 746.667c-194.576-1.398-360.224-123.737-425.614-295.518l-1.053-3.149c66.443-174.93 232.091-297.269 426.494-298.666l0.172-0.001c194.576 1.398 360.224 123.737 425.614 295.518l1.053 3.149c-66.443 174.93-232.091 297.269-426.494 298.666l-0.172 0.001zM512 547.413c0.762 0.021 1.66 0.033 2.56 0.033 54.904 0 99.413-44.509 99.413-99.413s-44.509-99.413-99.413-99.413c-54.893 0-99.395 44.49-99.413 99.379v0.002c-0.005 0.383-0.008 0.835-0.008 1.288 0 53.75 43.214 97.408 96.794 98.124l0.068 0.001zM512 627.2c-98.969 0-179.2-80.231-179.2-179.2s80.231-179.2 179.2-179.2v0c98.969 0 179.2 80.231 179.2 179.2s-80.231 179.2-179.2 179.2v0z" />
<glyph unicode="&#xe934;" glyph-name="eye-no" d="M512 689.493c150.792-0.856 280.565-89.967 340.361-218.263l0.973-2.324c-23.45-49.016-54.882-90.545-93.062-124.682l-0.378-0.332 54.613-56.32c53.845 48.99 96.159 109.673 123.044 178.109l1.116 3.224c-66.443 174.93-232.091 297.269-426.494 298.666l-0.172 0.001c-1.87 0.028-4.078 0.044-6.289 0.044-48.202 0-94.614-7.664-138.084-21.839l3.147 0.888 64-66.133c23.054 5.316 49.652 8.56 76.939 8.957l0.287 0.003zM469.333 643.84l80.213-82.773c22.453-10.517 39.885-28.641 49.254-50.983l0.24-0.644 83.627-82.773c3.488 13.197 5.491 28.347 5.491 43.966 0 97.814-78.555 177.28-176.019 178.753l-0.138 0.002c-0.696 0.012-1.516 0.018-2.338 0.018-14.359 0-28.242-2.032-41.38-5.825l1.051 0.26zM124.587 775.253l103.68-107.52c-63.329-51.867-112.373-118.89-141.849-195.615l-1.085-3.212c66.644-174.782 232.172-297.013 426.463-298.665l0.203-0.001c60.467 0.146 118.078 12.203 170.665 33.947l-2.985-1.093 130.987-139.093 54.613 56.747-686.080 711.253zM415.573 474.453l101.12-104.96h-4.693c-53.747 1.19-96.862 45.042-96.862 98.964 0 0.458 0.003 0.916 0.009 1.372l-0.001-0.069s0.427 2.56 0.427 4.693zM283.733 610.56l67.84-69.973c-8.897-21.198-14.070-45.833-14.080-71.676v-0.004c-0.012-0.771-0.019-1.681-0.019-2.592 0-97.069 77.734-175.982 174.348-177.885l0.178-0.003c24.875 0.169 48.464 5.491 69.812 14.949l-1.119-0.443 37.973-39.253c-31.883-9.426-68.553-15.013-106.476-15.359l-0.191-0.001c-150.726 1.079-280.401 90.103-340.357 218.264l-0.976 2.323c27.138 56.677 65.378 104.067 112.233 141.019l0.834 0.634z" />
<glyph unicode="&#xe935;" glyph-name="file-cad" d="M925.44 631.040l-242.773 231.253c-8.268 7.67-19.379 12.375-31.59 12.375-0.144 0-0.288-0.001-0.432-0.002h-341.311c-0.519 0.011-1.13 0.017-1.743 0.017-47.648 0-86.441-37.915-87.853-85.22l-0.003-0.13v-256h89.6v256h314.453v-170.667c0-23.564 19.103-42.667 42.667-42.667v0h179.627v-469.333h-536.32v85.333h-89.6v-85.333c0-0.026 0-0.056 0-0.086 0-47.128 38.205-85.333 85.333-85.333 1.351 0 2.694 0.031 4.029 0.093l-0.189-0.007h539.307c0.646-0.017 1.407-0.027 2.17-0.027 47.651 0 86.446 37.92 87.854 85.23l0.003 0.13v494.507c-0.292 11.768-5.306 22.311-13.21 29.851l-0.017 0.016zM587.947 392.107c-6.243 6.645-15.087 10.785-24.898 10.785-0.998 0-1.986-0.043-2.962-0.127l0.127 0.009h-13.653v-89.173h10.24c0.999-0.093 2.161-0.147 3.335-0.147 10.754 0 20.464 4.47 27.373 11.654l0.012 0.012c6.215 8.563 9.942 19.283 9.942 30.873 0 1.297-0.047 2.584-0.138 3.858l0.010-0.171c0.128 1.286 0.2 2.78 0.2 4.291 0 10.641-3.607 20.44-9.665 28.24l0.078-0.104zM394.667 369.493l-6.4 22.613c0 9.387-3.84 15.787-4.693 19.627 0-3.413-2.133-9.813-4.267-17.92s-6.4-25.173-13.653-50.347h36.267zM669.013 490.667h-538.88c-23.564 0-42.667-19.103-42.667-42.667v0-170.667c0-23.564 19.103-42.667 42.667-42.667v0h538.88c0.765-0.049 1.659-0.077 2.56-0.077 23.564 0 42.667 19.103 42.667 42.667 0 0.027 0 0.054 0 0.081v-0.004 170.667c0 0.023 0 0.050 0 0.077 0 23.564-19.103 42.667-42.667 42.667-0.901 0-1.795-0.028-2.682-0.083l0.122 0.006zM226.987 311.467c0.267-0.003 0.583-0.005 0.899-0.005 7.583 0 14.91 1.093 21.834 3.13l-0.546-0.138c8.481 1.776 15.491 3.689 22.338 5.958l-1.432-0.411v-36.693c-11.948-3.952-25.701-6.231-39.986-6.231-2.895 0-5.767 0.094-8.615 0.278l0.388-0.020c-1.645-0.123-3.562-0.194-5.496-0.194-20.667 0-39.459 8.030-53.425 21.139l0.042-0.039c-12.843 14.342-20.694 33.386-20.694 54.264 0 2.075 0.078 4.132 0.23 6.168l-0.016-0.271c-0.012 0.553-0.019 1.205-0.019 1.858 0 14.897 3.636 28.945 10.068 41.305l-0.235-0.497c6.671 12.165 16.422 21.915 28.22 28.402l0.367 0.185c12.133 6.454 26.53 10.244 41.812 10.244 0.3 0 0.6-0.001 0.9-0.004h-0.046c19.185-0.025 37.374-4.268 53.696-11.849l-0.79 0.329-14.080-33.707c-6.4 2.987-12.8 5.12-18.773 7.253-5.661 1.814-12.216 3.035-18.998 3.405l-0.202 0.009c-0.409 0.020-0.888 0.031-1.37 0.031-9.937 0-18.741-4.853-24.171-12.319l-0.059-0.086c-5.682-8.976-9.055-19.904-9.055-31.619 0-1.185 0.034-2.361 0.102-3.529l-0.008 0.161c0-31.147 12.373-46.507 37.12-46.507zM419.84 277.333l-8.533 29.867h-55.040l-8.533-29.867h-49.067l55.467 159.573h59.733l55.467-159.573zM621.653 298.667c-16.33-13.42-37.446-21.556-60.463-21.556-2.296 0-4.572 0.081-6.827 0.24l0.303-0.017h-54.187v160h58.88c1.844 0.13 3.995 0.204 6.164 0.204 21.754 0 41.764-7.468 57.606-19.98l-0.196 0.149c13.732-12.811 22.291-31.012 22.291-51.212 0-1.346-0.038-2.684-0.113-4.012l0.008 0.184c0.161-1.89 0.253-4.090 0.253-6.312 0-22.094-9.077-42.067-23.706-56.395l-0.014-0.013z" />
<glyph unicode="&#xe936;" glyph-name="filter" d="M934.4 850.773c-7.104 14.265-21.585 23.893-38.315 23.893-0.030 0-0.060 0-0.090 0h-767.995c-23.48-0.111-42.471-19.171-42.471-42.666 0-10.032 3.462-19.256 9.258-26.541l-0.067 0.087 374.613-465.067v-276.48c0-23.564 19.103-42.667 42.667-42.667s42.667 19.103 42.667 42.667v0 270.933l374.613 469.333c6.074 7.318 9.759 16.807 9.759 27.158 0 7.061-1.715 13.721-4.751 19.587l0.112-0.238zM514.133 420.693l-296.96 368.64h590.080z" />
<glyph unicode="&#xe937;" glyph-name="firmware" d="M853.333 405.333h-42.667v85.333h42.667c23.564 0 42.667 19.103 42.667 42.667s-19.103 42.667-42.667 42.667v0h-42.667v85.333c0 47.128-38.205 85.333-85.333 85.333v0h-85.333v42.667c0 23.564-19.103 42.667-42.667 42.667s-42.667-19.103-42.667-42.667v0-42.667h-85.333v42.667c0 23.564-19.103 42.667-42.667 42.667s-42.667-19.103-42.667-42.667v0-42.667h-85.333c-47.128 0-85.333-38.205-85.333-85.333v0-85.333h-42.667c-23.564 0-42.667-19.103-42.667-42.667s19.103-42.667 42.667-42.667v0h42.667v-85.333h-42.667c-23.564 0-42.667-19.103-42.667-42.667s19.103-42.667 42.667-42.667v0h42.667v-85.333c0-47.128 38.205-85.333 85.333-85.333v0h85.333v-42.667c0-23.564 19.103-42.667 42.667-42.667s42.667 19.103 42.667 42.667v0 42.667h85.333v-42.667c0-23.564 19.103-42.667 42.667-42.667s42.667 19.103 42.667 42.667v0 42.667h85.333c47.128 0 85.333 38.205 85.333 85.333v0 85.333h42.667c23.564 0 42.667 19.103 42.667 42.667s-19.103 42.667-42.667 42.667v0zM725.333 277.333c0-23.564-19.103-42.667-42.667-42.667v0h-341.333c-23.564 0-42.667 19.103-42.667 42.667v0 341.333c0 23.564 19.103 42.667 42.667 42.667v0h341.333c23.564 0 42.667-19.103 42.667-42.667v0zM512 598.187c-75.779-8.35-134.199-72.019-134.199-149.333s58.42-140.983 133.525-149.273l0.675-0.060c0.18-0.001 0.394-0.001 0.608-0.001 34.34 0 65.942 11.725 91.020 31.391l-0.321-0.243c14.26-17.419 35.037-29.042 58.555-31.123l0.325-0.023v148.48c-0.242 82.848-67.338 149.945-150.163 150.187h-0.023zM512 362.667c-45.011 1.207-81.039 37.982-81.039 83.172 0 45.95 37.25 83.2 83.2 83.2 45.19 0 81.965-36.028 83.17-80.927l0.002-0.112c0.018-0.644 0.028-1.401 0.028-2.161 0-45.95-37.25-83.2-83.2-83.2-0.76 0-1.518 0.010-2.273 0.030l0.112-0.002z" />
<glyph unicode="&#xe938;" glyph-name="floor" d="M148.053 518.4l341.333-213.333c6.418-4.070 14.234-6.485 22.613-6.485s16.195 2.416 22.788 6.589l-0.175-0.103 341.333 213.333c12.199 7.651 20.191 21.025 20.191 36.267s-7.991 28.616-20.013 36.162l-0.178 0.104-341.333 213.333c-6.418 4.070-14.234 6.485-22.613 6.485s-16.195-2.416-22.788-6.589l0.175 0.103-341.333-213.333c-12.199-7.651-20.191-21.025-20.191-36.267s7.991-28.616 20.013-36.162l0.178-0.104zM512 717.653l260.693-162.987-260.693-162.987-260.693 162.987zM830.72 398.933l-318.72-199.253-318.72 199.253c-6.42 4.062-14.235 6.472-22.613 6.472-23.604 0-42.739-19.135-42.739-42.739 0-15.226 7.962-28.592 19.95-36.163l0.176-0.104 341.333-213.333 7.253-2.987h3.413c3.454-1.912 7.529-3.144 11.866-3.409l0.080-0.004c1.539-0.294 3.31-0.462 5.12-0.462s3.581 0.168 5.297 0.49l-0.177-0.028h3.413l7.253 2.987 341.333 213.333c12.164 7.674 20.126 21.041 20.126 36.267 0 23.604-19.135 42.739-42.739 42.739-8.378 0-16.193-2.411-22.789-6.576l0.176 0.104z" />
<glyph unicode="&#xe939;" glyph-name="floorplan" d="M853.333 832h-426.667c-23.564 0-42.667-19.103-42.667-42.667v0-213.333h-213.333c-23.564 0-42.667-19.103-42.667-42.667v0-426.667c0-23.564 19.103-42.667 42.667-42.667v0h682.667c23.564 0 42.667 19.103 42.667 42.667v0 682.667c0 23.564-19.103 42.667-42.667 42.667v0zM554.667 320h128c23.564 0 42.667 19.103 42.667 42.667s-19.103 42.667-42.667 42.667v0h-170.667c-23.564 0-42.667-19.103-42.667-42.667v0-213.333h-256v341.333h213.333c23.564 0 42.667 19.103 42.667 42.667v0 213.333h341.333v-170.667h-128c-23.564 0-42.667-19.103-42.667-42.667s19.103-42.667 42.667-42.667v0h128v-341.333h-256z" />
<glyph unicode="&#xe93a;" glyph-name="fullscreen" d="M256 362.667c-23.564 0-42.667-19.103-42.667-42.667v0-128c0-23.564 19.103-42.667 42.667-42.667v0h128c23.564 0 42.667 19.103 42.667 42.667s-19.103 42.667-42.667 42.667v0h-85.333v85.333c0 23.564-19.103 42.667-42.667 42.667v0zM256 533.333c23.564 0 42.667 19.103 42.667 42.667v0 85.333h85.333c23.564 0 42.667 19.103 42.667 42.667s-19.103 42.667-42.667 42.667v0h-128c-23.564 0-42.667-19.103-42.667-42.667v0-128c0-23.564 19.103-42.667 42.667-42.667v0zM725.333 234.667h-85.333c-23.564 0-42.667-19.103-42.667-42.667s19.103-42.667 42.667-42.667v0h128c23.564 0 42.667 19.103 42.667 42.667v0 128c0 23.564-19.103 42.667-42.667 42.667s-42.667-19.103-42.667-42.667v0zM597.333 704c0-23.564 19.103-42.667 42.667-42.667v0h85.333v-85.333c0-23.564 19.103-42.667 42.667-42.667s42.667 19.103 42.667 42.667v0 128c0 23.564-19.103 42.667-42.667 42.667v0h-128c-23.564 0-42.667-19.103-42.667-42.667v0z" />
<glyph unicode="&#xe93b;" glyph-name="fullscreen-exit" d="M256 277.333h85.333v-85.333c0-23.564 19.103-42.667 42.667-42.667s42.667 19.103 42.667 42.667v0 128c0 23.564-19.103 42.667-42.667 42.667v0h-128c-23.564 0-42.667-19.103-42.667-42.667s19.103-42.667 42.667-42.667v0zM341.333 618.667h-85.333c-23.564 0-42.667-19.103-42.667-42.667s19.103-42.667 42.667-42.667v0h128c23.564 0 42.667 19.103 42.667 42.667v0 128c0 23.564-19.103 42.667-42.667 42.667s-42.667-19.103-42.667-42.667v0zM640 149.333c23.564 0 42.667 19.103 42.667 42.667v0 85.333h85.333c23.564 0 42.667 19.103 42.667 42.667s-19.103 42.667-42.667 42.667v0h-128c-23.564 0-42.667-19.103-42.667-42.667v0-128c0-23.564 19.103-42.667 42.667-42.667v0zM682.667 618.667v85.333c0 23.564-19.103 42.667-42.667 42.667s-42.667-19.103-42.667-42.667v0-128c0-23.564 19.103-42.667 42.667-42.667v0h128c23.564 0 42.667 19.103 42.667 42.667s-19.103 42.667-42.667 42.667v0z" />
<glyph unicode="&#xe93c;" glyph-name="gateway" d="M853.333 277.333c-15.445-0.257-28.867-8.681-36.158-21.132l-0.109-0.201h-91.733v42.667h10.667c1.654-0.061 3.596-0.096 5.547-0.096 88.419 0 160.096 71.677 160.096 160.096 0 86.468-68.55 156.925-154.269 159.992l-0.28 0.008c-22.667 110.759-119.32 192.898-235.158 192.898-92.406 0-172.604-52.27-212.64-128.856l-0.629-1.322c-95.861-11.46-169.465-92.281-169.465-190.293s73.604-178.834 168.554-190.204l0.911-0.089v-44.8h-91.733c-7.514 12.843-21.241 21.333-36.95 21.333-23.564 0-42.667-19.103-42.667-42.667s19.103-42.667 42.667-42.667c15.709 0 29.436 8.49 36.841 21.132l0.109 0.201h113.067c11.782 0 21.333 9.551 21.333 21.333v0 64h85.333v-134.4c-12.843-7.514-21.333-21.241-21.333-36.95 0-23.564 19.103-42.667 42.667-42.667s42.667 19.103 42.667 42.667c0 15.709-8.49 29.436-21.132 36.841l-0.201 0.109v134.4h85.333v-134.4c-12.843-7.514-21.333-21.241-21.333-36.95 0-23.564 19.103-42.667 42.667-42.667s42.667 19.103 42.667 42.667c0 15.709-8.49 29.436-21.132 36.841l-0.201 0.109v134.4h85.333v-64c0-11.782 9.551-21.333 21.333-21.333v0h113.067c7.515-12.84 21.24-21.328 36.947-21.328 23.564 0 42.667 19.103 42.667 42.667s-19.103 42.667-42.667 42.667c-0.239 0-0.478-0.002-0.717-0.006h0.036zM192 490.667c-0.002 0.231-0.002 0.503-0.002 0.776 0 65.733 49.548 119.893 113.334 127.169l0.589 0.055 35.413 2.56 16.213 30.293c30.385 54.758 87.86 91.207 153.849 91.207 83.509 0 153.383-58.372 171.048-136.541l0.223-1.173 9.813-48.213 48.64-3.413c49.831-3.23 89.043-44.375 89.173-94.707v-0.013c0-0.004 0-0.010 0-0.015 0-52.419-42.013-95.026-94.204-95.984l-0.090-0.001h-416c-70.692 0-128 57.308-128 128v0zM512 389.12c0.178-0.001 0.389-0.001 0.601-0.001 29.173 0 56.019 9.958 77.326 26.661l-0.273-0.206c12.44-14.541 30.083-24.316 50.014-26.425l0.333-0.029v128c0 70.692-57.308 128-128 128s-128-57.308-128-128c0-70.692 57.308-128 128-128v0zM512 588.373c39.352 0 71.253-31.901 71.253-71.253s-31.901-71.253-71.253-71.253c-39.352 0-71.253 31.901-71.253 71.253v0c0 39.352 31.901 71.253 71.253 71.253v0z" />
<glyph unicode="&#xe93d;" glyph-name="globe" d="M512 874.667c-235.641 0-426.667-191.025-426.667-426.667s191.025-426.667 426.667-426.667c235.641 0 426.667 191.025 426.667 426.667v0c0 235.641-191.025 426.667-426.667 426.667v0zM807.68 618.667h-125.013c-14.806 57.748-34.962 108.288-60.626 155.394l1.746-3.501c78.598-27.913 142.316-81.406 182.594-150.278l0.873-1.615zM512 789.333c34.171-48.97 61.956-105.654 80.383-166.409l1.11-4.258h-162.987c19.537 65.012 47.323 121.696 82.789 172.633l-1.296-1.966zM181.76 362.667c-7.047 25.599-11.097 54.993-11.097 85.333s4.050 59.734 11.638 87.671l-0.541-2.338h144.213c-3.525-25.38-5.687-54.959-5.971-84.987l-0.003-0.347c0.287-30.374 2.449-59.953 6.376-88.971l-0.403 3.638zM216.747 277.333h124.587c14.806-57.748 34.962-108.288 60.626-155.394l-1.746 3.501c-78.598 27.913-142.316 81.406-182.594 150.278l-0.873 1.615zM341.333 618.667h-124.587c41.447 70.693 105.637 124.242 182.355 151.162l2.392 0.731c-24.343-43.608-44.914-94.115-59.1-147.229l-1.060-4.665zM512 106.667c-34.171 48.97-61.956 105.654-80.383 166.409l-1.11 4.258h162.987c-19.537-65.012-47.323-121.696-82.789-172.633l1.296 1.966zM611.84 362.667h-199.68c-3.995 25.38-6.464 54.909-6.823 84.946l-0.004 0.387c0.343 30.406 2.813 59.936 7.268 88.811l-0.442-3.478h199.68c4.014-25.397 6.483-54.927 6.823-84.969l0.003-0.364c-0.363-30.424-2.832-59.954-7.269-88.834l0.443 3.501zM622.507 125.44c24.343 43.608 44.914 94.115 59.1 147.229l1.060 4.665h128c-42.232-71.252-107.687-124.949-185.752-151.191l-2.408-0.702zM698.027 362.667c3.525 25.38 5.687 54.959 5.971 84.987l0.003 0.347c-0.287 30.374-2.449 59.953-6.376 88.971l0.403-3.638h144.213c7.047-25.599 11.097-54.993 11.097-85.333s-4.050-59.734-11.638-87.671l0.541 2.338z" />
<glyph unicode="&#xe93e;" glyph-name="hardware" d="M597.333 576h-170.667c-23.564 0-42.667-19.103-42.667-42.667v0-170.667c0-23.564 19.103-42.667 42.667-42.667v0h170.667c23.564 0 42.667 19.103 42.667 42.667v0 170.667c0 23.564-19.103 42.667-42.667 42.667v0zM554.667 405.333h-85.333v85.333h85.333zM896 533.333c0 23.564-19.103 42.667-42.667 42.667v0h-42.667v85.333c0 47.128-38.205 85.333-85.333 85.333v0h-85.333v42.667c0 23.564-19.103 42.667-42.667 42.667s-42.667-19.103-42.667-42.667v0-42.667h-85.333v42.667c0 23.564-19.103 42.667-42.667 42.667s-42.667-19.103-42.667-42.667v0-42.667h-85.333c-47.128 0-85.333-38.205-85.333-85.333v0-85.333h-42.667c-23.564 0-42.667-19.103-42.667-42.667s19.103-42.667 42.667-42.667v0h42.667v-85.333h-42.667c-23.564 0-42.667-19.103-42.667-42.667s19.103-42.667 42.667-42.667v0h42.667v-85.333c0-47.128 38.205-85.333 85.333-85.333v0h85.333v-42.667c0-23.564 19.103-42.667 42.667-42.667s42.667 19.103 42.667 42.667v0 42.667h85.333v-42.667c0-23.564 19.103-42.667 42.667-42.667s42.667 19.103 42.667 42.667v0 42.667h85.333c47.128 0 85.333 38.205 85.333 85.333v0 85.333h42.667c23.564 0 42.667 19.103 42.667 42.667s-19.103 42.667-42.667 42.667v0h-42.667v85.333h42.667c23.564 0 42.667 19.103 42.667 42.667v0zM682.667 234.667h-341.333c-23.564 0-42.667 19.103-42.667 42.667v0 341.333c0 23.564 19.103 42.667 42.667 42.667v0h341.333c23.564 0 42.667-19.103 42.667-42.667v0-341.333c0-23.564-19.103-42.667-42.667-42.667v0z" />
<glyph unicode="&#xe93f;" glyph-name="help-circle" d="M584.107 868.693c-21.637 3.889-46.542 6.113-71.967 6.113-235.641 0-426.667-191.025-426.667-426.667s191.025-426.667 426.667-426.667c235.641 0 426.667 191.025 426.667 426.667 0 25.425-2.224 50.33-6.488 74.533l0.374-2.566c-31.364 178.47-170.116 317.222-346.021 348.212l-2.566 0.374zM578.987 113.067c-20.079-4.196-43.153-6.598-66.789-6.598-188.513 0-341.333 152.82-341.333 341.333s152.82 341.333 341.333 341.333c188.513 0 341.333-152.82 341.333-341.333 0-23.635-2.402-46.709-6.976-68.991l0.378 2.202c-27.71-135.361-132.587-240.237-265.744-267.569l-2.202-0.378zM512 277.333v0c23.564 0 42.667-19.103 42.667-42.667v0 0c0-23.564-19.103-42.667-42.667-42.667v0 0c-23.564 0-42.667 19.103-42.667 42.667v0 0c0 23.564 19.103 42.667 42.667 42.667v0zM538.027 704c-7.588 1.195-16.338 1.878-25.248 1.878-77.134 0-142.316-51.17-163.453-121.416l-0.312-1.208c-1.027-3.321-1.619-7.138-1.619-11.093 0-21.412 17.333-38.776 38.734-38.827h8.538c17.418 1.163 31.886 12.617 37.454 28.288l0.092 0.298c12.179 33.219 43.527 56.495 80.313 56.495 6.312 0 12.464-0.685 18.386-1.986l-0.565 0.104c38.708-8.628 67.213-42.679 67.213-83.387 0-2.186-0.082-4.353-0.244-6.498l0.017 0.286c-4.267-57.173-69.12-69.547-104.533-122.88 0 0 0 0 0 0v0c-3.761-6.043-7.339-13.061-10.324-20.384l-0.342-0.95s0-2.133 0-3.413c-0.026-0.446-0.041-0.968-0.041-1.493s0.015-1.047 0.044-1.565l-0.003 0.072c-7.318-16.551-11.944-35.787-12.789-56l-0.011-0.32h85.333c-0.002 0.214-0.003 0.467-0.003 0.721 0 16.533 4.436 32.030 12.182 45.365l-0.232-0.433 2.133 3.84c3.762 6.291 7.707 11.729 12.075 16.792l-0.128-0.152c4.452 5.234 9.053 9.971 13.948 14.39l0.132 0.117c42.667 38.827 96.427 70.4 85.333 151.893-9.052 76.644-66.758 137.534-141.006 151.301l-1.074 0.165z" />
<glyph unicode="&#xe940;" glyph-name="hierarchy" d="M751.787 240.213v0c-23.51 22.342-55.377 36.084-90.453 36.084s-66.943-13.743-90.51-36.137l0.056 0.053c-13.020-13.143-23.216-29.108-29.587-46.893l-0.279-0.893h-135.68v255.573h135.68c6.788-18.634 16.962-34.575 29.892-47.812l-0.025 0.026c23.166-23.113 55.14-37.405 90.453-37.405 70.732 0 128.071 57.339 128.071 128.071 0 35.419-14.378 67.48-37.616 90.664l-0.002 0.002c-23.469 22.437-55.348 36.246-90.453 36.246s-66.985-13.81-90.503-36.293l0.049 0.047c-13.020-13.143-23.216-29.108-29.587-46.893l-0.279-0.893h-135.68v93.44c50.122 18.112 85.3 65.282 85.3 120.668 0 35.358-14.336 67.367-37.513 90.532v0c-23.51 22.342-55.377 36.084-90.453 36.084s-66.943-13.743-90.51-36.137l0.056 0.053c-23.177-23.166-37.513-55.175-37.513-90.532 0-55.386 35.177-102.556 84.409-120.386l0.891-0.282v-477.867c0-23.564 19.103-42.667 42.667-42.667v0h178.347c6.651-18.679 16.847-34.643 29.876-47.797l-0.010 0.010c23.166-23.113 55.14-37.405 90.453-37.405 70.732 0 128.071 57.339 128.071 128.071 0 35.419-14.378 67.48-37.616 90.664l-0.002 0.002zM631.040 521.387c7.733 7.795 18.45 12.621 30.293 12.621s22.56-4.826 30.291-12.618l0.003-0.003c7.668-7.712 12.407-18.343 12.407-30.080s-4.74-22.368-12.409-30.082l0.002 0.002c-7.733-7.795-18.45-12.621-30.293-12.621s-22.56 4.826-30.291 12.618l-0.003 0.003c-7.668 7.712-12.407 18.343-12.407 30.080s4.74 22.368 12.409 30.082l-0.002-0.002zM332.373 777.387c7.733 7.795 18.45 12.621 30.293 12.621s22.56-4.826 30.291-12.618l0.003-0.003c7.668-7.712 12.407-18.343 12.407-30.080s-4.74-22.368-12.409-30.082l0.002 0.002c-7.733-7.795-18.45-12.621-30.293-12.621s-22.56 4.826-30.291 12.618l-0.003 0.003c-7.795 7.733-12.621 18.45-12.621 30.293s4.826 22.56 12.618 30.291l0.003 0.003zM691.627 119.467c-7.733-7.795-18.45-12.621-30.293-12.621s-22.56 4.826-30.291 12.618l-0.003 0.003c-7.662 7.715-12.397 18.344-12.397 30.080 0 23.577 19.113 42.691 42.691 42.691 11.842 0 22.557-4.821 30.291-12.608l0.002-0.002c7.668-7.712 12.407-18.343 12.407-30.080s-4.74-22.368-12.409-30.082l0.002 0.002z" />
<glyph unicode="&#xe941;" glyph-name="history" d="M565.76 832c-3.305 0.102-7.193 0.16-11.093 0.16-212.077 0-384-171.923-384-384 0-0.057 0-0.113 0-0.17v0.009h-76.373c-0.228 0.009-0.496 0.014-0.765 0.014-11.546 0-20.907-9.36-20.907-20.907 0-6.073 2.59-11.542 6.725-15.361l0.014-0.013 119.040-119.467c3.867-3.898 9.225-6.31 15.147-6.31s11.28 2.413 15.145 6.309l0.001 0.001 119.040 119.467c3.771 3.845 6.099 9.117 6.099 14.934 0 11.782-9.551 21.333-21.333 21.333-0.044 0-0.088 0-0.132 0h-76.366c0 0.009 0 0.020 0 0.030 0 164.949 133.718 298.667 298.667 298.667 1.5 0 2.998-0.011 4.493-0.033l-0.226 0.003c160.797-4.388 290.012-133.603 294.391-293.988l0.009-0.412c0.019-1.269 0.030-2.767 0.030-4.267 0-164.949-133.718-298.667-298.667-298.667-0.011 0-0.022 0-0.032 0h0.002c-0.125 0-0.274 0-0.423 0-69.070 0-132.585 23.786-182.8 63.613l0.609-0.466c-7.199 5.726-16.422 9.187-26.453 9.187-23.572 0-42.68-19.108-42.68-42.68 0-13.54 6.305-25.607 16.139-33.426l0.087-0.067c63.788-50.792 145.54-81.495 234.463-81.495 0.372 0 0.743 0.001 1.114 0.002h-0.058c0.048 0 0.104 0 0.16 0 212.077 0 384 171.923 384 384 0 3.901-0.058 7.789-0.174 11.662l0.013-0.568c-8.322 202.516-170.391 364.585-372.135 372.881l-0.772 0.025zM544 618.667c-17.577-0.237-31.763-14.423-32-31.977v-157.036c0.003-15.533 8.305-29.126 20.714-36.586l0.193-0.107 133.12-78.933c4.692-2.846 10.363-4.53 16.427-4.53 17.701 0 32.050 14.349 32.050 32.050 0 11.637-6.202 21.825-15.48 27.44l-0.143 0.080-122.88 72.96v145.067c-0.241 17.489-14.474 31.573-31.997 31.573-0.001 0-0.002 0-0.003 0v0z" />
<glyph unicode="&#xe942;" glyph-name="home" d="M924.16 480l-156.16 138.667v170.667c0 23.564-19.103 42.667-42.667 42.667s-42.667-19.103-42.667-42.667v0-94.72l-142.507 128s-3.413 0-4.693 2.987l-7.68 4.267-7.68 2.133h-16.213l-7.68-2.133-7.68-4.267s-3.413 0-4.693-2.987l-384-341.333c-8.88-7.856-14.449-19.28-14.449-32.004 0-10.812 4.021-20.684 10.65-28.203l-0.040 0.047c7.856-8.88 19.28-14.449 32.004-14.449 10.812 0 20.684 4.021 28.203 10.65l-0.047-0.040 14.507 12.8v-323.413c0-23.564 19.103-42.667 42.667-42.667v0h213.333c23.564 0 42.667 19.103 42.667 42.667v0 213.333h85.333v-213.333c0-23.564 19.103-42.667 42.667-42.667v0h213.333c23.564 0 42.667 19.103 42.667 42.667v0 322.133l14.507-12.8c7.472-6.588 17.345-10.609 28.156-10.609 12.724 0 24.147 5.57 31.964 14.404l0.039 0.045c6.588 7.472 10.609 17.345 10.609 28.156 0 12.724-5.57 24.147-14.404 31.964l-0.045 0.039zM768 490.667v-341.333h-128v213.333c0 23.564-19.103 42.667-42.667 42.667v0h-170.667c-23.564 0-42.667-19.103-42.667-42.667v0-213.333h-128v341.333c-0.213 4.35-1.134 8.426-2.65 12.199l0.090-0.253 258.56 229.547 258.56-229.547c-1.426-3.52-2.347-7.596-2.557-11.859l-0.003-0.088z" />
<glyph unicode="&#xe943;" glyph-name="infinity" d="M804.693 631.467c-17.144 5.532-36.869 8.721-57.338 8.721-52.412 0-99.941-20.908-134.701-54.838l0.038 0.037-250.027-222.72c-21.856-21.879-52.061-35.413-85.428-35.413-66.687 0-120.747 54.060-120.747 120.747s54.060 120.747 120.747 120.747c0.033 0 0.067 0 0.1 0h-0.005c33.458-0.639 63.547-14.553 85.317-36.677l0.016-0.016 16.64-14.933c6.281-5.549 14.585-8.937 23.68-8.937s17.399 3.388 23.718 8.97l-0.038-0.033c7.334 6.661 11.92 16.235 11.92 26.88s-4.586 20.219-11.891 26.853l-0.030 0.027-14.933 12.8c-34.666 34.286-82.355 55.467-134.991 55.467-106.039 0-192-85.961-192-192s85.961-192 192-192c52.636 0 100.325 21.181 135.009 55.484l-0.017-0.017 250.453 222.72c21.856 21.879 52.061 35.413 85.428 35.413 66.687 0 120.747-54.060 120.747-120.747s-54.060-120.747-120.747-120.747c-0.033 0-0.067 0-0.1 0h0.005c-33.441 0.735-63.5 14.626-85.323 36.683l-0.011 0.011-17.067 15.36c-6.281 5.549-14.585 8.937-23.68 8.937s-17.399-3.388-23.718-8.97l0.038 0.033c-7.334-6.661-11.92-16.235-11.92-26.88s4.586-20.219 11.891-26.853l0.030-0.027 14.933-13.227c34.774-34.537 82.687-55.882 135.586-55.882 106.274 0 192.427 86.152 192.427 192.427 0 10.843-0.897 21.477-2.621 31.832l0.154-1.123c-11.918 72.779-63.923 130.915-132.205 151.545l-1.341 0.348z" />
<glyph unicode="&#xe944;" glyph-name="info-circle" d="M512 661.333v0c23.564 0 42.667-19.103 42.667-42.667v0 0c0-23.564-19.103-42.667-42.667-42.667v0 0c-23.564 0-42.667 19.103-42.667 42.667v0 0c0 23.564 19.103 42.667 42.667 42.667v0zM512 490.667v0c23.564 0 42.667-19.103 42.667-42.667v0-170.667c0-23.564-19.103-42.667-42.667-42.667v0 0c-23.564 0-42.667 19.103-42.667 42.667v0 170.667c0 23.564 19.103 42.667 42.667 42.667v0zM512 874.667c-235.641 0-426.667-191.025-426.667-426.667s191.025-426.667 426.667-426.667c235.641 0 426.667 191.025 426.667 426.667v0c0 235.641-191.025 426.667-426.667 426.667v0zM512 106.667c-188.513 0-341.333 152.82-341.333 341.333s152.82 341.333 341.333 341.333c188.513 0 341.333-152.82 341.333-341.333v0c0-188.513-152.82-341.333-341.333-341.333v0z" />
<glyph unicode="&#xe945;" glyph-name="infrastructure" d="M124.16 719.36c-21.443 0-38.827-17.383-38.827-38.827v0-581.547c0.241-42.79 34.864-77.413 77.63-77.653h581.57c21.443 0 38.827 17.383 38.827 38.827s-17.383 38.827-38.827 38.827h-542.72c-21.443 0-38.827 17.383-38.827 38.827v542.72c0 21.443-17.383 38.827-38.827 38.827v0zM861.013 874.667h-543.147c-42.703-0.242-77.227-34.915-77.227-77.652 0 0 0-0.001 0-0.001v0-543.147c0-42.651 34.576-77.227 77.227-77.227v0h543.147c0 0 0.001 0 0.001 0 42.737 0 77.41 34.524 77.652 77.204v543.17c-0.241 42.79-34.864 77.413-77.63 77.653h-0.023zM822.187 253.867h-465.493c-21.443 0-38.827 17.383-38.827 38.827v0 465.493c0 21.443 17.383 38.827 38.827 38.827v0h465.493c21.443 0 38.827-17.383 38.827-38.827v0-465.493c0-21.443-17.383-38.827-38.827-38.827v0zM768 401.067v-27.733c-26.948 2.733-50.437 15.679-66.873 34.85l-0.114 0.136c-28.407-21.901-64.502-35.103-103.68-35.103-94.257 0-170.667 76.41-170.667 170.667s76.41 170.667 170.667 170.667c94.216 0 170.601-76.344 170.667-170.544v-0.006zM692.053 544c-0.722 51.759-42.849 93.44-94.711 93.44-52.312 0-94.72-42.408-94.72-94.72 0-52.309 42.403-94.715 94.711-94.72v0c52.129 0.242 94.293 42.557 94.293 94.719 0 0 0 0.001 0 0.001v0z" />
<glyph unicode="&#xe946;" glyph-name="inventory" d="M810.667 789.333h-178.347c-18.382 49.611-65.296 84.33-120.32 84.33s-101.938-34.719-120.032-83.444l-0.288-0.886h-178.347c-2.561 0.311-5.526 0.489-8.533 0.489s-5.972-0.178-8.886-0.523l0.353 0.034c-28.298-6.294-50.939-25.977-61.238-51.903l-0.202-0.577c-4.314-9.671-6.827-20.956-6.827-32.828 0-0.009 0-0.017 0-0.026v0.001-597.333c0.085-12.034 2.587-23.46 7.044-33.849l-0.217 0.569c4.646-10.574 10.821-19.62 18.362-27.323l-0.015 0.016c11.312-11.462 25.83-19.734 42.099-23.36l0.568-0.106c5.054-0.816 10.881-1.282 16.817-1.282 0.238 0 0.476 0.001 0.713 0.002h597.297c47.128 0 85.333 38.205 85.333 85.333v0 597.333c0 47.128-38.205 85.333-85.333 85.333v0zM512 800c17.673 0 32-14.327 32-32s-14.327-32-32-32c-17.673 0-32 14.327-32 32v0c0.237 17.577 14.423 31.763 31.977 32h0.023zM810.667 106.667h-597.333v597.333h597.333zM418.987 448h314.027c19.864 2.365 35.12 19.109 35.12 39.417 0 1.144-0.048 2.276-0.143 3.396l0.010-0.146c0.085 0.973 0.133 2.106 0.133 3.25 0 20.308-15.256 37.053-34.932 39.399l-0.188 0.018h-314.027c-19.864-2.365-35.12-19.109-35.12-39.417 0-1.144 0.048-2.276 0.143-3.396l-0.010 0.146c-0.085-0.973-0.133-2.106-0.133-3.25 0-20.308 15.256-37.053 34.932-39.399l0.188-0.018zM418.987 282.027h314.027c20.972 0 37.973 17.001 37.973 37.973s-17.001 37.973-37.973 37.973h-314.027c-20.972 0-37.973-17.001-37.973-37.973s17.001-37.973 37.973-37.973v0zM341.333 320c0-23.564-19.103-42.667-42.667-42.667s-42.667 19.103-42.667 42.667c0 23.564 19.103 42.667 42.667 42.667s42.667-19.103 42.667-42.667zM341.333 490.667c0-23.564-19.103-42.667-42.667-42.667s-42.667 19.103-42.667 42.667c0 23.564 19.103 42.667 42.667 42.667s42.667-19.103 42.667-42.667z" />
<glyph unicode="&#xe947;" glyph-name="lan" d="M896 320h-85.333v85.333h85.333c23.564 0 42.667 19.103 42.667 42.667s-19.103 42.667-42.667 42.667v0h-341.333v85.333h85.333c23.564 0 42.667 19.103 42.667 42.667v0 170.667c0 23.564-19.103 42.667-42.667 42.667v0h-256c-23.564 0-42.667-19.103-42.667-42.667v0-170.667c0-23.564 19.103-42.667 42.667-42.667v0h85.333v-85.333h-341.333c-23.564 0-42.667-19.103-42.667-42.667s19.103-42.667 42.667-42.667v0h85.333v-85.333h-85.333c-23.564 0-42.667-19.103-42.667-42.667v0-170.667c0-23.564 19.103-42.667 42.667-42.667v0h256c23.564 0 42.667 19.103 42.667 42.667v0 170.667c0 23.564-19.103 42.667-42.667 42.667v0h-85.333v85.333h426.667v-85.333h-85.333c-23.564 0-42.667-19.103-42.667-42.667v0-170.667c0-23.564 19.103-42.667 42.667-42.667v0h256c23.564 0 42.667 19.103 42.667 42.667v0 170.667c0 23.564-19.103 42.667-42.667 42.667v0zM426.667 746.667h170.667v-85.333h-170.667zM341.333 149.333h-170.667v85.333h170.667zM853.333 149.333h-170.667v85.333h170.667z" />
<glyph unicode="&#xe948;" glyph-name="laptop-mobile" d="M227.413 634.453c-0.006 0.257-0.010 0.56-0.010 0.863 0 19.969 15.951 36.212 35.806 36.683l0.044 0.001h568.747c18.945 2.087 33.55 18.005 33.55 37.333s-14.605 35.246-33.381 37.318l-0.169 0.015h-604.587c-39.419-1.412-70.839-33.708-70.839-73.342 0-0.466 0.004-0.93 0.013-1.394l-0.001 0.070v-410.88h-17.92c-30.869 0-55.893-25.024-55.893-55.893s25.024-55.893 55.893-55.893h391.253c30.869 0 55.893 25.024 55.893 55.893s-25.024 55.893-55.893 55.893h-302.507zM903.253 597.333h-213.333c-19.899-0.472-35.85-16.715-35.85-36.684 0-0.303 0.004-0.606 0.011-0.908l-0.001 0.045v-373.333c-0.002-0.13-0.003-0.283-0.003-0.437 0-19.966 15.947-36.208 35.798-36.683l0.044-0.001h213.333c19.708 0.708 35.416 16.855 35.416 36.671 0 0.158-0.001 0.315-0.003 0.473v-0.024 373.333c0.007 0.261 0.010 0.568 0.010 0.875 0 19.819-15.712 35.968-35.36 36.67l-0.064 0.002zM867.413 261.12h-142.080v261.547h142.080z" />
<glyph unicode="&#xe949;" glyph-name="link" d="M725.333 661.333h-128c-23.564 0-42.667-19.103-42.667-42.667s19.103-42.667 42.667-42.667v0h128c70.692 0 128-57.308 128-128s-57.308-128-128-128v0h-128c-23.564 0-42.667-19.103-42.667-42.667s19.103-42.667 42.667-42.667v0h128c117.821 0 213.333 95.513 213.333 213.333s-95.513 213.333-213.333 213.333v0zM341.333 448c0-23.564 19.103-42.667 42.667-42.667v0h256c23.564 0 42.667 19.103 42.667 42.667s-19.103 42.667-42.667 42.667v0h-256c-23.564 0-42.667-19.103-42.667-42.667v0zM426.667 320h-128c-70.692 0-128 57.308-128 128s57.308 128 128 128v0h128c23.564 0 42.667 19.103 42.667 42.667s-19.103 42.667-42.667 42.667v0h-128c-117.821 0-213.333-95.513-213.333-213.333s95.513-213.333 213.333-213.333v0h128c23.564 0 42.667 19.103 42.667 42.667s-19.103 42.667-42.667 42.667v0z" />
<glyph unicode="&#xe94a;" glyph-name="link-no" d="M936.107 477.44c-19.737 101.524-107.941 177.116-213.801 177.116-1.636 0-3.268-0.018-4.895-0.054l0.242 0.004h-120.32c-2.474 0.543-5.315 0.853-8.229 0.853-22.15 0-40.107-17.956-40.107-40.107s17.956-40.107 40.107-40.107c2.914 0 5.756 0.311 8.493 0.901l-0.264-0.048h123.733c1.117 0.033 2.432 0.052 3.751 0.052 67.337 0 123.18-49.207 133.533-113.625l0.103-0.774c0.654-4.86 1.027-10.478 1.027-16.183 0-53.378-32.673-99.125-79.111-118.332l-0.85-0.311 59.733-58.453c59.964 37.153 99.308 102.593 99.308 177.222 0 11.241-0.893 22.273-2.611 33.029l0.156-1.185zM175.787 798.293c-7.712 7.668-18.343 12.407-30.080 12.407s-22.368-4.74-30.082-12.409l0.002 0.002c-7.295-7.642-11.784-18.017-11.784-29.44s4.489-21.798 11.8-29.457l-0.016 0.017 102.4-100.693c-78.674-31.064-133.323-106.435-133.323-194.571 0-5.702 0.229-11.351 0.678-16.938l-0.048 0.736c13.010-109.369 105.2-193.366 217.008-193.366 2.159 0 4.31 0.031 6.454 0.094l-0.315-0.007h120.32c21.915 0 39.68 17.765 39.68 39.68s-17.765 39.68-39.68 39.68h-123.307c-1.002-0.026-2.182-0.041-3.366-0.041-68.95 0-125.962 51.11-135.219 117.51l-0.082 0.718c-0.462 4.084-0.726 8.818-0.726 13.613 0 67.194 51.775 122.295 117.608 127.584l0.452 0.029 89.6-87.893c-18.1-3.442-31.71-18.805-32.424-37.473l-0.002-0.074v-4.267c1.534-21.563 18.881-38.616 40.434-39.676l0.099-0.004h75.947l96.853-96v-73.387h73.813l139.52-136.96c7.712-7.668 18.343-12.407 30.080-12.407s22.368 4.74 30.082 12.409l-0.002-0.002c7.295 7.642 11.784 18.017 11.784 29.44s-4.489 21.798-11.8 29.457l0.016-0.017zM682.667 448c-1.534 21.563-18.881 38.616-40.434 39.676l-0.099 0.004h-28.16l63.573-62.293c3.039 5.28 4.912 11.573 5.119 18.286l0.001 0.060z" />
<glyph unicode="&#xe94b;" glyph-name="list-bulleted" d="M170.667 512c-35.346 0-64-28.654-64-64s28.654-64 64-64c35.346 0 64 28.654 64 64v0c0 35.346-28.654 64-64 64v0zM170.667 768c-35.346 0-64-28.654-64-64s28.654-64 64-64c35.346 0 64 28.654 64 64v0c0 35.346-28.654 64-64 64v0zM170.667 256c-35.346 0-64-28.654-64-64s28.654-64 64-64c35.346 0 64 28.654 64 64v0c0 35.346-28.654 64-64 64v0zM384 149.333h512c23.564 0 42.667 19.103 42.667 42.667s-19.103 42.667-42.667 42.667v0h-512c-23.564 0-42.667-19.103-42.667-42.667s19.103-42.667 42.667-42.667v0zM384 405.333h512c23.564 0 42.667 19.103 42.667 42.667s-19.103 42.667-42.667 42.667v0h-512c-23.564 0-42.667-19.103-42.667-42.667s19.103-42.667 42.667-42.667v0zM341.333 704c0-23.564 19.103-42.667 42.667-42.667v0h512c23.564 0 42.667 19.103 42.667 42.667s-19.103 42.667-42.667 42.667v0h-512c-23.564 0-42.667-19.103-42.667-42.667v0z" />
<glyph unicode="&#xe94c;" glyph-name="location" d="M512 886.187c-165.473-2.388-298.697-137.088-298.697-302.904 0-1.511 0.011-3.019 0.033-4.524l-0.003 0.228c0-182.613 188.587-434.773 265.813-530.347 7.882-9.464 19.669-15.443 32.853-15.443s24.971 5.98 32.798 15.375l0.056 0.069c77.227 95.573 265.813 347.733 265.813 530.347 0.019 1.278 0.030 2.786 0.030 4.296 0 165.816-133.224 300.516-298.473 302.901l-0.224 0.003zM528.64 175.787c-3.942-4.885-9.929-7.983-16.64-7.983s-12.698 3.098-16.608 7.943l-0.032 0.041c-86.613 114.773-196.693 285.867-196.693 400.213 0 117.821 95.513 213.333 213.333 213.333s213.333-95.513 213.333-213.333v0c0-115.627-108.373-285.013-196.693-400.213zM618.667 576c0-58.91-47.756-106.667-106.667-106.667s-106.667 47.756-106.667 106.667c0 58.91 47.756 106.667 106.667 106.667s106.667-47.756 106.667-106.667z" />
<glyph unicode="&#xe94d;" glyph-name="location-add" d="M512 874.667c-165.423-2.15-298.697-136.752-298.697-302.483 0-1.509 0.011-3.015 0.033-4.518l-0.003 0.227c0-183.040 188.587-434.773 265.813-530.773 7.882-9.464 19.669-15.443 32.853-15.443s24.971 5.98 32.798 15.375l0.056 0.069c77.227 96 265.813 347.733 265.813 530.773 0.019 1.276 0.030 2.782 0.030 4.291 0 165.73-133.274 300.333-298.494 302.481l-0.203 0.002zM298.667 564.48c0 117.821 95.513 213.333 213.333 213.333s213.333-95.513 213.333-213.333v0c0-115.2-108.373-284.587-196.693-400.213-3.858-5.035-9.874-8.25-16.64-8.25s-12.782 3.215-16.603 8.2l-0.037 0.050c-86.613 113.067-196.693 286.293-196.693 400.213zM546.133 567.467v102.4c0 18.851-15.282 34.133-34.133 34.133v0c-18.851 0-34.133-15.282-34.133-34.133v0-102.4h-102.4c-18.851 0-34.133-15.282-34.133-34.133v0 0c0-18.851 15.282-34.133 34.133-34.133v0h102.4v-102.4c0-18.851 15.282-34.133 34.133-34.133v0 0c18.851 0 34.133 15.282 34.133 34.133v0 102.4h102.4c18.851 0 34.133 15.282 34.133 34.133v0 0c0 18.851-15.282 34.133-34.133 34.133v0z" />
<glyph unicode="&#xe94e;" glyph-name="location-edit" d="M512 874.667c-165.519-2.632-298.686-137.426-298.686-303.324 0-1.213 0.007-2.424 0.021-3.633l-0.002 0.184c0-182.613 188.587-434.773 266.24-530.773 7.878-9.314 19.573-15.188 32.64-15.188s24.762 5.874 32.588 15.125l0.052 0.063c77.227 96 265.813 348.16 265.813 530.773 0.012 1.025 0.020 2.237 0.020 3.449 0 165.898-133.168 300.692-298.439 303.321l-0.247 0.003zM426.667 426.667h-55.893v57.173l156.587 156.16 56.747-56.747zM651.093 648.96l-29.867-30.72-60.16 63.147 29.867 30.72c2.939 2.967 7.015 4.804 11.52 4.804s8.581-1.837 11.519-4.803l0.001-0.001 38.4-39.68c2.992-3.008 4.841-7.155 4.841-11.733s-1.849-8.725-4.842-11.734l0.001 0.001z" />
<glyph unicode="&#xe94f;" glyph-name="lock" d="M768 597.333h-42.667v85.333c0 117.821-95.513 213.333-213.333 213.333s-213.333-95.513-213.333-213.333v0-85.333h-42.667c-47.128 0-85.333-38.205-85.333-85.333v0-426.667c0-47.128 38.205-85.333 85.333-85.333v0h512c47.128 0 85.333 38.205 85.333 85.333v0 426.667c0 47.128-38.205 85.333-85.333 85.333v0zM384 682.667c0 70.692 57.308 128 128 128s128-57.308 128-128v0-85.333h-256zM725.333 85.333h-426.667c-0.016 0-0.035 0-0.053 0-23.564 0-42.667 19.103-42.667 42.667 0 0.75 0.019 1.496 0.058 2.237l-0.004-0.104v337.067c-0.034 0.637-0.053 1.383-0.053 2.133 0 23.564 19.103 42.667 42.667 42.667 0.019 0 0.038 0 0.056 0h426.664c0.016 0 0.035 0 0.053 0 23.564 0 42.667-19.103 42.667-42.667 0-0.75-0.019-1.496-0.058-2.237l0.004 0.104v-337.067c0.034-0.637 0.053-1.383 0.053-2.133 0-23.564-19.103-42.667-42.667-42.667-0.019 0-0.038 0-0.056 0h0.003zM512 213.333c47.128 0 85.333 38.205 85.333 85.333s-38.205 85.333-85.333 85.333c-47.128 0-85.333-38.205-85.333-85.333v0c0-47.128 38.205-85.333 85.333-85.333v0z" />
<glyph unicode="&#xe950;" glyph-name="lock-no" d="M512 384c-47.128 0-85.333-38.205-85.333-85.333s38.205-85.333 85.333-85.333c47.128 0 85.333 38.205 85.333 85.333v0c0 47.128-38.205 85.333-85.333 85.333v0zM768 597.333h-42.667v85.333c-0.115 117.734-95.584 213.131-213.333 213.131-98.794 0-181.904-67.156-206.169-158.308l-0.337-1.49c-0.859-3.201-1.352-6.876-1.352-10.667 0-23.604 19.135-42.739 42.739-42.739 19.814 0 36.478 13.483 41.32 31.774l0.067 0.298c14.987 55.259 64.693 95.236 123.736 95.236 70.424 0 127.564-56.873 127.998-127.194v-85.374h-384c-47.128 0-85.333-38.205-85.333-85.333v0-426.667c0-47.128 38.205-85.333 85.333-85.333v0h512c47.128 0 85.333 38.205 85.333 85.333v0 426.667c0 47.128-38.205 85.333-85.333 85.333v0zM768 128c0-23.564-19.103-42.667-42.667-42.667v0h-426.667c-23.564 0-42.667 19.103-42.667 42.667v0 341.333c0 23.564 19.103 42.667 42.667 42.667v0h426.667c23.564 0 42.667-19.103 42.667-42.667v0z" />
<glyph unicode="&#xe951;" glyph-name="mail" d="M853.333 789.333h-682.667c-47.128 0-85.333-38.205-85.333-85.333v0-512c0-47.128 38.205-85.333 85.333-85.333v0h682.667c47.128 0 85.333 38.205 85.333 85.333v0 512c0 47.128-38.205 85.333-85.333 85.333v0zM810.667 192h-597.333c-23.564 0-42.667 19.103-42.667 42.667v0 384l296.107-185.173c12.836-8.139 28.467-12.971 45.227-12.971s32.391 4.832 45.576 13.178l-0.35-0.207 296.107 185.173v-384c0-23.564-19.103-42.667-42.667-42.667v0zM512 490.667l-341.333 213.333h682.667z" />
<glyph unicode="&#xe952;" glyph-name="minus" d="M768 405.333h-512c-23.564 0-42.667 19.103-42.667 42.667s19.103 42.667 42.667 42.667v0h512c23.564 0 42.667-19.103 42.667-42.667s-19.103-42.667-42.667-42.667v0z" />
<glyph unicode="&#xe953;" glyph-name="minus-circle" d="M298.667 448c0-23.564 19.103-42.667 42.667-42.667v0h341.333c23.564 0 42.667 19.103 42.667 42.667s-19.103 42.667-42.667 42.667v0h-341.333c-23.564 0-42.667-19.103-42.667-42.667v0zM512 874.667c-235.641 0-426.667-191.025-426.667-426.667s191.025-426.667 426.667-426.667c235.641 0 426.667 191.025 426.667 426.667v0c0 235.641-191.025 426.667-426.667 426.667v0zM512 106.667c-188.513 0-341.333 152.82-341.333 341.333s152.82 341.333 341.333 341.333c188.513 0 341.333-152.82 341.333-341.333v0c0-188.513-152.82-341.333-341.333-341.333v0z" />
<glyph unicode="&#xe954;" glyph-name="mobile" d="M669.44 874.667h-314.88c-0.255 0.002-0.556 0.004-0.857 0.004-53.663 0-97.222-43.262-97.703-96.811v-659.673c0.481-53.595 44.040-96.857 97.703-96.857 0.301 0 0.602 0.001 0.903 0.004h314.834c0.255-0.002 0.556-0.004 0.857-0.004 53.663 0 97.222 43.262 97.703 96.811v659.673c-0.481 53.595-44.040 96.857-97.703 96.857-0.301 0-0.602-0.001-0.903-0.004h0.046zM512 60.16c-32.098 0.243-58.025 26.319-58.025 58.452 0 32.283 26.17 58.453 58.453 58.453s58.453-26.17 58.453-58.453c0-0.149-0.001-0.299-0.002-0.448v0.023c-0.241-32.1-26.318-58.028-58.452-58.028-0.151 0-0.301 0.001-0.451 0.002h0.023zM689.067 215.467h-354.133v542.72h354.133z" />
<glyph unicode="&#xe955;" glyph-name="more" d="M512 618.667c47.128 0 85.333 38.205 85.333 85.333s-38.205 85.333-85.333 85.333c-47.128 0-85.333-38.205-85.333-85.333v0c0-47.128 38.205-85.333 85.333-85.333v0zM512 533.333c-47.128 0-85.333-38.205-85.333-85.333s38.205-85.333 85.333-85.333c47.128 0 85.333 38.205 85.333 85.333v0c0 47.128-38.205 85.333-85.333 85.333v0zM512 277.333c-47.128 0-85.333-38.205-85.333-85.333s38.205-85.333 85.333-85.333c47.128 0 85.333 38.205 85.333 85.333v0c0 47.128-38.205 85.333-85.333 85.333v0z" />
<glyph unicode="&#xe956;" glyph-name="more-circle" d="M512 874.667c-235.641 0-426.667-191.025-426.667-426.667s191.025-426.667 426.667-426.667c235.641 0 426.667 191.025 426.667 426.667v0c0 235.641-191.025 426.667-426.667 426.667v0zM512 98.987c-192.755 0-349.013 156.259-349.013 349.013s156.259 349.013 349.013 349.013c192.755 0 349.013-156.259 349.013-349.013v0c-0.243-192.657-156.356-348.771-348.99-349.013h-0.023zM357.12 448c0-42.887-34.767-77.653-77.653-77.653s-77.653 34.767-77.653 77.653c0 42.887 34.767 77.653 77.653 77.653s77.653-34.767 77.653-77.653zM589.653 448c0-42.887-34.767-77.653-77.653-77.653s-77.653 34.767-77.653 77.653c0 42.887 34.767 77.653 77.653 77.653s77.653-34.767 77.653-77.653zM822.187 448c0-42.887-34.767-77.653-77.653-77.653s-77.653 34.767-77.653 77.653c0 42.887 34.767 77.653 77.653 77.653s77.653-34.767 77.653-77.653z" />
<glyph unicode="&#xe957;" glyph-name="move-down" d="M512 874.667c-235.641 0-426.667-191.025-426.667-426.667s191.025-426.667 426.667-426.667c235.641 0 426.667 191.025 426.667 426.667v0c0 235.641-191.025 426.667-426.667 426.667v0zM512 106.667c-188.513 0-341.333 152.82-341.333 341.333s152.82 341.333 341.333 341.333c188.513 0 341.333-152.82 341.333-341.333v0c0-188.513-152.82-341.333-341.333-341.333v0zM677.547 533.333l-165.547-165.547-165.973 165.547c-7.69 7.542-18.235 12.197-29.867 12.197s-22.177-4.655-29.874-12.203l0.007 0.007c-7.668-7.712-12.407-18.343-12.407-30.080s4.74-22.368 12.409-30.082l-0.002 0.002 195.413-195.84c7.733-7.795 18.45-12.621 30.293-12.621s22.56 4.826 30.291 12.618l0.003 0.003 195.413 195.84c9.153 7.872 14.914 19.467 14.914 32.407 0 23.564-19.103 42.667-42.667 42.667-12.94 0-24.535-5.761-32.36-14.858l-0.047-0.056z" />
<glyph unicode="&#xe958;" glyph-name="move-up" d="M512 874.667c-235.641 0-426.667-191.025-426.667-426.667s191.025-426.667 426.667-426.667c235.641 0 426.667 191.025 426.667 426.667v0c0 235.641-191.025 426.667-426.667 426.667v0zM512 106.667c-188.513 0-341.333 152.82-341.333 341.333s152.82 341.333 341.333 341.333c188.513 0 341.333-152.82 341.333-341.333v0c0-188.513-152.82-341.333-341.333-341.333v0zM542.293 576c-7.733 7.795-18.45 12.621-30.293 12.621s-22.56-4.826-30.291-12.618l-0.003-0.003-195.413-195.84c-7.668-7.712-12.407-18.343-12.407-30.080s4.74-22.368 12.409-30.082l-0.002 0.002c7.69-7.542 18.235-12.197 29.867-12.197s22.177 4.655 29.874 12.203l-0.007-0.007 165.973 165.547 165.547-165.547c7.872-9.153 19.467-14.914 32.407-14.914 23.564 0 42.667 19.103 42.667 42.667 0 12.94-5.761 24.535-14.858 32.36l-0.056 0.047z" />
<glyph unicode="&#xe959;" glyph-name="neighbours" d="M490.667 448c0-106.039-85.961-192-192-192s-192 85.961-192 192c0 106.039 85.961 192 192 192s192-85.961 192-192zM725.333 640c-106.039 0-192-85.961-192-192s85.961-192 192-192c106.039 0 192 85.961 192 192v0c-0.242 105.941-86.059 191.758-191.977 192h-0.023zM725.333 341.333c-58.91 0-106.667 47.756-106.667 106.667s47.756 106.667 106.667 106.667c58.91 0 106.667-47.756 106.667-106.667v0c0-58.91-47.756-106.667-106.667-106.667v0z" />
</font>
</defs>
</svg>
